<?xml version="1.0" standalone="no"?>
<!DOCTYPE svg PUBLIC "-//W3C//DTD SVG 1.0//EN" "http://www.w3.org/TR/2001/REC-SVG-20010904/DTD/svg10.dtd">
<svg xmlns="http://www.w3.org/2000/svg" xmlns:xlink="http://www.w3.org/1999/xlink" id="body_1" width="200" height="151">

<g transform="matrix(1.0050251 0 0 1.0066667 0 0)">
	<g transform="matrix(0.49750003 0 0 0.49754906 -0 0.36764997)">
	</g>
    <path transform="matrix(0.49750003 0 0 0.49754906 -0 0.36764997)"  d="M348 254.8L60.18 254.8C 59.90386 254.8 59.68 254.57614 59.68 254.3C 59.68 254.02386 59.90386 253.8 60.18 253.8L60.18 253.8L348 253.8C 348.27615 253.8 348.5 254.02386 348.5 254.3C 348.5 254.57614 348.27615 254.8 348 254.8z" stroke="none" fill="#D1D3D4" fill-rule="nonzero" />
	<g transform="matrix(0.49750003 0 0 0.49754906 -0 0.36764997)">
	</g>
    <path transform="matrix(0.49750003 0 0 0.49754906 -0 0.36764997)"  d="M48.74 60.92C 48.74 53.97778 54.367783 48.35 61.31 48.35L61.31 48.35L338.6 48.35C 345.5422 48.35 351.16998 53.97778 351.16998 60.92L351.16998 60.92L351.16998 202.09C 351.16998 209.03221 345.5422 214.66 338.6 214.66L338.6 214.66L61.31 214.66C 54.367783 214.66 48.74 209.03221 48.74 202.09L48.74 202.09L48.74 60.92z" stroke="none" fill="#FFFFFF" fill-rule="nonzero" />
	<g transform="matrix(0.49750003 0 0 0.49754906 -0 0.36764997)">
	</g>
    <path transform="matrix(0.49750003 0 0 0.49754906 -0 0.36764997)"  d="M338.6 215.18L61.31 215.18C 54.08288 215.17448 48.225517 209.31712 48.22 202.09L48.22 202.09L48.22 60.92C 48.225517 53.69288 54.08288 47.835518 61.31 47.83L61.31 47.83L338.6 47.83C 345.82715 47.835518 351.6845 53.69288 351.69 60.920002L351.69 60.920002L351.69 202.09C 351.6845 209.31712 345.82715 215.17448 338.6 215.18zM61.31 48.86C 54.653355 48.86552 49.26 54.26335 49.26 60.92L49.26 60.92L49.26 202.09C 49.292995 208.7232 54.676704 214.08458 61.309998 214.09L61.309998 214.09L338.6 214.09C 345.21378 214.05717 350.5672 208.70378 350.6 202.09L350.6 202.09L350.6 60.92C 350.6001 54.282806 345.23712 48.89302 338.6 48.859997z" stroke="none" fill="#231F20" fill-rule="nonzero" />
	<g transform="matrix(0.49750003 0 0 0.49754906 -0 0.36764997)">
	</g>
    <path transform="matrix(0.49750003 0 0 0.49754906 -0 0.36764997)"  d="M48.74 67.27L351.16998 67.27L351.16998 195.73001L48.74 195.73001L48.74 67.27z" stroke="none" fill="#FFFFFF" fill-rule="nonzero" />
	<g transform="matrix(0.49750003 0 0 0.49754906 -0 0.36764997)">
	</g>
    <path transform="matrix(0.49750003 0 0 0.49754906 -0 0.36764997)"  d="M351.17 196.25L48.74 196.25C 48.60302 196.25269 48.470715 196.20015 48.3729 196.1042C 48.27508 196.00827 48.21998 195.87701 48.22 195.74L48.22 195.74L48.22 67.27C 48.21998 67.13299 48.275078 67.001724 48.3729 66.90579C 48.470715 66.80985 48.60302 66.75731 48.74 66.759995L48.74 66.759995L351.17 66.759995C 351.30698 66.75731 351.4393 66.80986 351.5371 66.90579C 351.63492 67.00173 351.69003 67.13299 351.69 67.27L351.69 67.27L351.69 195.74C 351.69 195.87701 351.63492 196.00827 351.5371 196.1042C 351.4393 196.20013 351.30698 196.25269 351.17 196.25zM49.26001 195.25L350.65 195.25L350.65 67.79L49.26 67.79z" stroke="none" fill="#231F20" fill-rule="nonzero" />
	<g transform="matrix(0.49750003 0 0 0.49754906 -0 0.36764997)">
	</g>
    <path transform="matrix(0.49750003 0 0 0.49754906 -0 0.36764997)"  d="M252.83 251.1L147.08 251.1L159.04 214.66L240.87 214.66L252.83 251.1" stroke="none" fill="#FFFFFF" fill-rule="nonzero" />
	<g transform="matrix(0.49750003 0 0 0.49754906 -0 0.36764997)">
	</g>
    <path transform="matrix(0.49750003 0 0 0.49754906 -0 0.36764997)"  d="M252.83 251.62L147.08 251.62C 146.91501 251.62036 146.76091 251.53767 146.67 251.4C 146.56898 251.26929 146.53903 251.09712 146.59 250.93999L146.59 250.93999L158.59 214.49998C 158.65883 214.28703 158.8562 214.14203 159.08 214.13998L159.08 214.13998L240.91 214.13998C 241.13379 214.14203 241.33116 214.28703 241.40001 214.49998L241.40001 214.49998L253.40001 250.93999C 253.45099 251.09712 253.42104 251.26929 253.32 251.4C 253.21501 251.5643 253.02257 251.6507 252.83 251.62zM147.83 250.62L252.11 250.62L240.5 215.22L159.41 215.22z" stroke="none" fill="#231F20" fill-rule="nonzero" />
	<g transform="matrix(0.49750003 0 0 0.49754906 -0 0.36764997)">
	</g>
    <path transform="matrix(0.49750003 0 0 0.49754906 -0 0.36764997)"  d="M133.22 256.23C 133.22 253.39679 135.51678 251.1 138.35 251.1L138.35 251.1L261.56 251.1C 264.39322 251.1 266.69 253.39679 266.69 256.23C 266.69 259.06323 264.39322 261.36002 261.56 261.36002L261.56 261.36002L138.35 261.36002C 135.51678 261.36002 133.22 259.06323 133.22 256.23z" stroke="none" fill="#FFFFFF" fill-rule="nonzero" />
	<g transform="matrix(0.49750003 0 0 0.49754906 -0 0.36764997)">
	</g>
    <path transform="matrix(0.49750003 0 0 0.49754906 -0 0.36764997)"  d="M261.56 261.88L138.35 261.88C 135.2296 261.88 132.70001 259.35043 132.70001 256.23C 132.70001 253.1096 135.2296 250.58002 138.35 250.58L138.35 250.58L261.56 250.58C 264.68042 250.58002 267.21 253.1096 267.21 256.23C 267.21 259.35043 264.68042 261.88 261.56 261.88zM138.35 251.62C 136.70302 251.61998 135.18112 252.49864 134.35764 253.92499C 133.53413 255.35132 133.53413 257.10864 134.35764 258.53497C 135.18112 259.96133 136.70302 260.83997 138.35 260.84L138.35 260.84L261.56 260.84C 264.10602 260.83997 266.16998 258.776 266.16998 256.22998C 266.16998 253.68394 264.10602 251.61998 261.56 251.62z" stroke="none" fill="#231F20" fill-rule="nonzero" />
	<g transform="matrix(0.49750003 0 0 0.49754906 -0 0.36764997)">
	</g>
    <path transform="matrix(0.49750003 0 0 0.49754906 -0 0.36764997)"  d="M150.62 241.44C 152.33 240.54001 243.87 223.81 243.87 223.81L243.87 223.81L240.87 214.66L159 214.66L150.62 241.44z" stroke="none" fill="#231F20" fill-rule="nonzero" />
	<g transform="matrix(0.49750003 0 0 0.49754906 -0 0.36764997)">
	</g>
    <path transform="matrix(0.49750003 0 0 0.49754906 -0 0.36764997)"  d="M150.64 241.93C 150.51598 241.93182 150.39539 241.88927 150.3 241.81C 150.15457 241.67966 150.09633 241.47774 150.15001 241.29L150.15001 241.29L158.56001 214.51C 158.62585 214.30061 158.82053 214.15866 159.04001 214.15999L159.04001 214.15999L240.87001 214.15999C 241.08585 214.16034 241.27808 214.29651 241.35 214.49998L241.35 214.49998L244.35 223.64998C 244.40993 223.78008 244.40993 223.92989 244.35 224.05998C 244.27693 224.1856 244.15283 224.2732 244.01001 224.29999C 212.62001 230.04 152.75 241.09999 150.89001 241.88998C 150.81223 241.92697 150.72545 241.94086 150.64 241.93zM159.4 215.15999L151.4 240.72998C 160.76 238.51997 232.20999 225.43999 243.25 223.41998L243.25 223.41998L240.54 215.15999z" stroke="none" fill="#231F20" fill-rule="nonzero" />
	<g transform="matrix(0.49750003 0 0 0.49754906 -0 0.36764997)">
	</g>
    <path transform="matrix(0.49750003 0 0 0.49754906 -0 0.36764997)"  d="M243.82 92.45C 243.82 92.45 184.17001 77.829994 165.64001 92.45L165.64001 92.45L180.44002 121.31L166 133.38L156 183.26001L234.54001 184.40001L238.97 139.1C 238.97 139.1 247.07 166.01001 255.81 167.1C 264.55 168.19 243.82 92.45 243.82 92.45z" stroke="none" fill="#153CFB" fill-rule="nonzero" />
	<g transform="matrix(0.49750003 0 0 0.49754906 -0 0.36764997)">
	</g>
    <path transform="matrix(0.49750003 0 0 0.49754906 -0 0.36764997)"  d="M290.7 124.7C 291.4857 126.24337 291.83163 127.973145 291.7 129.7C 291.48624 131.32681 290.98154 132.90189 290.21002 134.34999C 286.37003 142.76 282.52002 151.15999 278.21002 159.34999C 275.67 164.18 271.34003 169.73 265.39 170.26999C 260.25 170.74998 251.58002 165.9 250.39001 160.66998C 248.81001 153.66998 258 145.37999 261.87003 140.28998C 267.07004 133.45998 272.24002 126.099976 278.24002 119.93998C 281.53003 116.56998 282.64 116.24998 286.31003 119.43998C 288.10068 120.89195 289.5917 122.6785 290.7 124.7z" stroke="none" fill="#FFFFFF" fill-rule="nonzero" />
	<g transform="matrix(0.49750003 0 0 0.49754906 -0 0.36764997)">
	</g>
    <path transform="matrix(0.49750003 0 0 0.49754906 -0 0.36764997)"  d="M264.57 170.83C 258.29 170.83 250.95001 165.25 249.95001 160.83C 248.64001 155.03 254.15001 148.67 258.57 143.56C 259.68 142.28 260.72 141.06999 261.52002 140.02C 262.52002 138.67 263.58002 137.29001 264.62003 135.91C 268.70178 130.19937 273.14764 124.75814 277.93002 119.62C 281.37003 116.090004 282.76 115.62 286.71002 119.090004C 288.53436 120.58745 290.0464 122.429054 291.16003 124.51C 292.00043 126.137085 292.38077 127.9627 292.26004 129.79001C 292.0333 131.47772 291.51205 133.11253 290.72003 134.62001C 286.94003 142.90001 283.03003 151.45001 278.72003 159.62001C 276.66003 163.54001 272.20004 170.20001 265.48004 170.82C 265.17703 170.83852 264.87332 170.84186 264.57 170.83zM282.41 117.75C 281.31 117.75 280.31 118.62 278.67 120.3C 273.91595 125.406166 269.4968 130.81409 265.44 136.49L265.44 136.49L262.34 140.61C 261.52 141.68001 260.47 142.9 259.34 144.19C 255.06999 149.13 249.75 155.28 250.94 160.56C 252.04001 165.44 260.5 170.2 265.38 169.76C 271.61002 169.18999 275.83002 162.84 277.80002 159.11C 282.09003 150.95 285.99002 142.41 289.80002 134.11C 290.5447 132.71071 291.03564 131.19054 291.25003 129.62C 291.3562 127.978294 291.0103 126.338905 290.25003 124.88C 289.20206 122.91832 287.77435 121.18467 286.05002 119.78C 284.41 118.42 283.37 117.75 282.41 117.75z" stroke="none" fill="#231F20" fill-rule="nonzero" />
	<g transform="matrix(0.49750003 0 0 0.49754906 -0 0.36764997)">
	</g>
    <path transform="matrix(0.49750003 0 0 0.49754906 -0 0.36764997)"  d="M262.48 109.58L278 139.66C 279.39 142.34 282.3 143.40001 284.7 142.08L284.7 142.08L292 138C 294.57 136.59 295.61 133 294.31 130L294.31 130L284.31 107L289.68 100.34C 289.68 100.34 264.52 108.09 262.48 109.58z" stroke="none" fill="#FFFFFF" fill-rule="nonzero" />
	<g transform="matrix(0.49750003 0 0 0.49754906 -0 0.36764997)">
	</g>
    <path transform="matrix(0.49750003 0 0 0.49754906 -0 0.36764997)"  d="M282.49 143.16C 281.98883 143.15623 281.49063 143.08217 281.00998 142.94C 279.4813 142.43416 278.22012 141.33511 277.50998 139.89L277.50998 139.89L262 109.82C 261.88687 109.59024 261.95422 109.31245 262.16 109.159996C 264.16 107.67 286.97 100.7 289.56 99.909996C 289.77338 99.83769 290.00858 99.92021 290.13 100.10999C 290.265 100.29092 290.265 100.53907 290.13 100.71999L290.13 100.71999L285 107.14L294.88 129.85C 296.28 133.07 295.14 136.94 292.34 138.48001L292.34 138.48001L284.97 142.53001C 284.21194 142.95155 283.3573 143.16867 282.49 143.16zM263.16998 109.78L278.43 139.42C 279.00754 140.61873 280.04684 141.53174 281.31 141.95C 282.35153 142.26947 283.47833 142.1503 284.43 141.62L284.43 141.62L291.8 137.62C 294.13998 136.33 295.06998 133.04999 293.87997 130.29999L293.87997 130.29999L283.87997 107.29999C 283.80597 107.12363 283.8327 106.92108 283.94998 106.76999L283.94998 106.76999L288.27 101.41999C 280.84 103.67 266 108.34 263.17 109.78z" stroke="none" fill="#231F20" fill-rule="nonzero" />
	<g transform="matrix(0.49750003 0 0 0.49754906 -0 0.36764997)">
	</g>
    <path transform="matrix(0.49750003 0 0 0.49754906 -0 0.36764997)"  d="M251.8 82L244.73 84.25C 244.73 84.25 241.73 103.75 255.06 110.76L255.06 110.76L261.88998 108.35L251.8 82z" stroke="none" fill="#231F20" fill-rule="nonzero" />
	<g transform="matrix(0.49750003 0 0 0.49754906 -0 0.36764997)">
	</g>
    <path transform="matrix(0.49750003 0 0 0.49754906 -0 0.36764997)"  d="M255.06 111.29C 254.9794 111.2905 254.90009 111.269806 254.83 111.23C 241.38 104.14 244.21 84.41 244.24 84.23C 244.2686 84.043106 244.40016 83.88833 244.58 83.83L244.58 83.83L251.65001 81.57C 251.90094 81.48977 252.1704 81.622284 252.26001 81.87L252.26001 81.87L262.36002 108.23C 262.4079 108.3545 262.40298 108.49314 262.34634 108.613914C 262.28973 108.734695 262.18634 108.82718 262.06003 108.87L262.06003 108.87L255.23003 111.28001C 255.17444 111.29366 255.1168 111.29705 255.06 111.29zM245.18 84.66C 244.89 87.130005 243.39 103.880005 255.10999 110.25L255.10999 110.25L261.25 108.08L251.5 82.64z" stroke="none" fill="#231F20" fill-rule="nonzero" />
	<g transform="matrix(0.49750003 0 0 0.49754906 -0 0.36764997)">
	</g>
    <path transform="matrix(0.49750003 0 0 0.49754906 -0 0.36764997)"  d="M330.12 40.34C 330.12 40.34 319.87 54.510002 298.88998 63.93C 280.71 72.09 250.33998 80.08 250.33998 80.08C 250.33998 80.08 243.59998 99.64 260.11 111.08C 260.11 111.08 288.18997 103.490005 301.00998 101.3C 317.49997 98.48 350.36 106.3 350.36 106.3L350.36 106.3L330.12 40.34z" stroke="none" fill="#FFFFFF" fill-rule="nonzero" />
	<g transform="matrix(0.49750003 0 0 0.49754906 -0 0.36764997)">
	</g>
    <path transform="matrix(0.49750003 0 0 0.49754906 -0 0.36764997)"  d="M260.11 111.61C 260.00555 111.60598 259.90466 111.57119 259.81998 111.51C 243.16998 99.98 249.81998 80.11 249.81998 79.91C 249.87764 79.74699 250.01256 79.6233 250.17998 79.58C 250.47998 79.5 280.71997 71.51 298.64996 63.46C 319.25995 54.199997 329.56998 40.18 329.64996 40.04C 329.7673 39.88009 329.96408 39.79906 330.15997 39.83C 330.3537 39.862907 330.51233 40.002182 330.56998 40.190002L330.56998 40.190002L350.8 106.100006C 350.85535 106.277534 350.8136 106.47108 350.69 106.61001C 350.5592 106.74096 350.3713 106.797325 350.19 106.76001C 349.86002 106.68001 317.25 99.05001 301.05 101.82001C 288.4 103.98001 260.47998 111.51001 260.19998 111.59001L260.19998 111.59001L260.11 111.61zM250.75 80.5C 250.05 82.82 245.46 100.13 260.21 110.5C 262.94998 109.76 288.84 102.84 300.93 100.770004C 315.82 98.22 344.26 104.32001 349.59998 105.520004L349.59998 105.520004L329.92 41.44C 321.5145 51.334763 310.97775 59.198006 299.1 64.44C 282 72.07 253.84 79.68 250.75 80.5z" stroke="none" fill="#231F20" fill-rule="nonzero" />
	<g transform="matrix(0.49750003 0 0 0.49754906 -0 0.36764997)">
	</g>
    <path transform="matrix(0.49750003 0 0 0.49754906 -0 0.36764997)"  d="M352.28 106C 346.57 107.67 339.15 100.45 333.52 88.78C 331.62238 84.79011 330.0506 80.65331 328.81998 76.409996C 327.5957 72.28221 326.70944 68.06159 326.16998 63.789997C 324.52997 50.789997 326.87997 40.539997 332.63998 38.85C 340.16998 36.649998 350.63998 49.85 356.09 68.43C 361.54 87.01 359.81 103.82 352.28 106z" stroke="none" fill="#231F20" fill-rule="nonzero" />
	<g transform="matrix(0.49750003 0 0 0.49754906 -0 0.36764997)">
	</g>
    <path transform="matrix(0.49750003 0 0 0.49754906 -0 0.36764997)"  d="M350.61 106.76C 345.09 106.76 338.41998 100.100006 333.08 89.03C 331.16492 85.0154 329.5797 80.851715 328.34 76.58C 327.11035 72.42527 326.21744 68.17817 325.66998 63.88C 323.93997 50.120003 326.62 40.120003 332.49997 38.4C 340.41998 36.08 350.98996 49.24 356.56998 68.32C 362.06998 87.09 360.21 104.22 352.41998 106.509995C 351.8316 106.67906 351.22214 106.763245 350.61 106.76zM334.37 39.129997C 333.8317 39.129982 333.29623 39.207443 332.78 39.359997C 327.48 40.909996 325.02 50.71 326.66 63.749996C 327.19638 67.99828 328.07935 72.19565 329.3 76.3C 330.53024 80.520706 332.10214 84.634384 334 88.6C 339.63 100.27 346.94 107.08 352.17 105.6C 359.43002 103.47 360.99002 86.899994 355.64 68.649994C 350.66 51.66 341.47 39.13 334.37 39.13z" stroke="none" fill="#231F20" fill-rule="nonzero" />
	<g transform="matrix(0.49750003 0 0 0.49754906 -0 0.36764997)">
	</g>
    <path transform="matrix(0.49750003 0 0 0.49754906 -0 0.36764997)"  d="M250.34 80.08C 250.34 80.08 243.59999 99.64 260.11 111.08C 260.11 111.08 279.00998 105.97 292.87 102.93C 290.04 100.05 286.57 94.84 284.87 85.729996C 283.77966 80.50146 283.4429 75.1439 283.87 69.81999C 267.54 75.55 250.34 80.08 250.34 80.08z" stroke="none" fill="#FFFFFF" fill-rule="nonzero" />
	<g transform="matrix(0.49750003 0 0 0.49754906 -0 0.36764997)">
	</g>
    <path transform="matrix(0.49750003 0 0 0.49754906 -0 0.36764997)"  d="M260.11 111.61C 260.00555 111.60598 259.90466 111.57119 259.81998 111.51C 243.16998 99.98 249.81998 80.11 249.81998 79.91C 249.87764 79.74699 250.01256 79.6233 250.17998 79.58C 250.34998 79.58 267.55 74.990005 283.61 69.350006C 283.77615 69.29001 283.96155 69.32028 284.09998 69.43001C 284.23422 69.53908 284.30542 69.70775 284.28998 69.880005C 283.87357 75.154205 284.21027 80.460754 285.28998 85.64001C 287.03998 94.78001 290.55 99.90001 293.18997 102.58001C 293.32062 102.71496 293.3701 102.90898 293.31998 103.09001C 293.26807 103.26815 293.12177 103.40289 292.93997 103.44001C 279.23996 106.44001 260.38998 111.54001 260.19998 111.59001L260.19998 111.59001L260.11 111.61zM250.75 80.5C 250.05 82.82 245.46 100.13 260.21 110.5C 262.38 109.92 279.08 105.5 291.88 102.6C 289.23 99.67 285.99 94.49 284.32 85.8C 283.2871 80.78679 282.91727 75.65957 283.22 70.55C 268.46 75.73 253 79.91 250.75 80.5z" stroke="none" fill="#231F20" fill-rule="nonzero" />
	<g transform="matrix(0.49750003 0 0 0.49754906 -0 0.36764997)">
	</g>
    <path transform="matrix(0.49750003 0 0 0.49754906 -0 0.36764997)"  d="M343.54 84.94L333.54 88.810005C 331.6424 84.82011 330.07062 80.68331 328.84 76.44C 327.61572 72.31222 326.72946 68.0916 326.19 63.820004L326.19 63.820004L337 62.33L343.54 84.94z" stroke="none" fill="#FFFFFF" fill-rule="nonzero" />
	<g transform="matrix(0.49750003 0 0 0.49754906 -0 0.36764997)">
	</g>
    <path transform="matrix(0.49750003 0 0 0.49754906 -0 0.36764997)"  d="M333.52 89.33C 333.32428 89.32759 333.1465 89.215515 333.06 89.04C 331.149 85.02371 329.56387 80.8603 328.32 76.590004C 327.09027 72.43187 326.1974 68.18148 325.65 63.880005C 325.6205 63.599377 325.8202 63.34644 326.1 63.310005L326.1 63.310005L336.91 61.820004C 337.16647 61.78035 337.41183 61.93961 337.48 62.190002L337.48 62.190002L344 84.79C 344.07053 85.04814 343.93756 85.318375 343.69 85.42L343.69 85.42L333.69 89.29C 333.63687 89.315384 333.57886 89.329025 333.52 89.33zM326.74 64.26C 327.28943 68.319695 328.14862 72.33136 329.31 76.26C 330.49023 80.32327 331.9847 84.28854 333.78 88.12L333.78 88.12L342.91 84.590004L336.61002 62.860004z" stroke="none" fill="#231F20" fill-rule="nonzero" />
	<g transform="matrix(0.47777033 -0.13872841 0.13871472 0.47781742 -3.4974256 49.037895)">
	</g>
    <path transform="matrix(0.47777033 -0.13872841 0.13871472 0.47781742 -3.4974256 49.037895)"  d="M336.81 73.63C 336.81 67.12961 338.3546 61.859997 340.26 61.859997C 342.1654 61.859997 343.71002 67.12961 343.71002 73.63C 343.71002 80.13039 342.1654 85.399994 340.26 85.399994C 338.3546 85.399994 336.81 80.13039 336.81 73.63" stroke="none" fill="#FFFFFF" fill-rule="nonzero" />
	<g transform="matrix(0.49750003 0 0 0.49754906 -0 0.36764997)">
	</g>
    <path transform="matrix(0.49750003 0 0 0.49754906 -0 0.36764997)"  d="M343.25 85.5C 342.25 85.5 341.03 84.5 339.81 82.58C 338.33905 80.131424 337.20868 77.49384 336.45 74.740005C 334.79 69.020004 334.36002 62.550007 336.84003 61.840004C 337.98004 61.500004 339.32004 62.490005 340.72003 64.68C 342.18735 67.13274 343.31433 69.77358 344.07004 72.53C 345.73004 78.25 346.16003 84.71 343.69003 85.43C 343.54712 85.47276 343.39917 85.4963 343.25 85.5zM337.25 62.809998C 337.19717 62.799488 337.1428 62.799488 337.09 62.809998C 335.91998 63.149998 335.47 67.74 337.41998 74.43C 338.15643 77.090164 339.25327 79.63711 340.68 82C 341.94998 84 342.91998 84.55 343.4 84.41C 344.58 84.07001 345.02 79.48 343.08 72.79C 342.3557 70.12726 341.2689 67.57672 339.84998 65.21C 338.7 63.44 337.8 62.81 337.28 62.81z" stroke="none" fill="#231F20" fill-rule="nonzero" />
	<g transform="matrix(0.49750003 0 0 0.49754906 -0 0.36764997)">
	</g>
    <path transform="matrix(0.49750003 0 0 0.49754906 -0 0.36764997)"  d="M282.05 113.59C 280.87146 113.62307 279.7323 114.02142 278.78998 114.729996C 277.93 115.53 277.78998 117.17 278.78998 117.729996C 279.11975 117.8953 279.48132 117.987404 279.84998 117.99999C 281.38425 118.1497 282.93243 118.062 284.43997 117.73999C 283.13464 118.35511 282.00372 119.28666 281.14996 120.44999C 280.95288 120.67339 280.84595 120.96211 280.84998 121.25999C 280.91998 121.819984 281.61 122.01999 282.15997 122.039986C 283.56076 122.105774 284.95844 121.85631 286.24997 121.30998C 285.38144 121.49646 284.56726 121.87961 283.86996 122.429985C 282.05997 124.09998 283.70996 125.429985 285.30997 125.27998C 288.01996 124.98998 293.43997 127.94998 293.43997 127.94998C 293.43997 127.94998 294.86 125.04998 294.74997 123.57998C 294.55942 122.03415 294.2075 120.512505 293.69998 119.03998C 292.87 116.14998 291.80997 112.83998 289.77 110.54998C 286.77 107.18998 277.22 107.209984 277.18 113.00998C 278.7454 113.53965 280.404 113.73719 282.05 113.59z" stroke="none" fill="#FFFFFF" fill-rule="nonzero" />
	<g transform="matrix(0.49750003 0 0 0.49754906 -0 0.36764997)">
	</g>
    <path transform="matrix(0.49750003 0 0 0.49754906 -0 0.36764997)"  d="M293.45 128.49C 293.36176 128.4906 293.27512 128.46634 293.2 128.42C 293.15002 128.42 287.89 125.549995 285.37003 125.81C 284.31366 125.97811 283.26215 125.48211 282.72003 124.56C 282.4331 123.88252 282.57007 123.09976 283.07004 122.56C 282.76004 122.56 282.46005 122.56 282.15002 122.56C 281.15002 122.56 280.43002 122.04 280.35004 121.329994C 280.32074 120.89906 280.46472 120.47427 280.75003 120.149994C 281.17328 119.56195 281.66696 119.02798 282.22003 118.56C 281.418 118.62494 280.61203 118.62494 279.81003 118.56C 279.36722 118.547424 278.93298 118.43459 278.54004 118.229996C 277.9822 117.91306 277.61026 117.34774 277.54004 116.71C 277.45615 115.84663 277.76453 114.99125 278.38004 114.38C 278.5265 114.25146 278.68005 114.13126 278.84003 114.02C 278.19846 113.92528 277.56845 113.76442 276.96002 113.53999C 276.75702 113.46348 276.62463 113.26689 276.63004 113.049995C 276.63004 110.89739 278.04605 109.001236 280.11005 108.39C 283.43005 107.13 288.11005 108.01 290.11005 110.25C 292.11005 112.49 293.30005 115.98 294.11005 118.95L294.11005 118.95L294.29004 119.57C 294.72073 120.869934 295.01892 122.21008 295.18005 123.57C 295.29004 125.14 293.97006 127.9 293.81006 128.21C 293.7493 128.33362 293.64108 128.4274 293.51007 128.47C 293.49054 128.47807 293.4705 128.48476 293.45 128.49zM285.7 124.76C 288.12003 124.76 291.87003 126.57 293.21002 127.26C 293.76205 126.12116 294.10098 124.89089 294.21002 123.630005C 294.06137 122.340195 293.77643 121.06976 293.36002 119.840004L293.36002 119.840004L293.18002 119.200005C 292.36002 116.340004 291.31003 113.11 289.35004 110.91C 287.63004 108.98 283.41003 108.22 280.49005 109.32001C 278.96524 109.76783 277.8602 111.08992 277.69006 112.670006C 279.08325 113.06641 280.53766 113.20201 281.98007 113.07001C 282.21152 113.11069 282.38693 113.30151 282.408 113.53555C 282.42905 113.769585 282.29053 113.98867 282.07007 114.07001C 280.99072 114.08514 279.9426 114.43451 279.07007 115.07001C 278.68698 115.450226 278.4959 115.982994 278.55008 116.520004C 278.56686 116.823784 278.7312 117.10015 278.99008 117.26C 279.25443 117.39192 279.54474 117.463646 279.8401 117.47C 281.32422 117.612 282.8213 117.5277 284.2801 117.22C 284.55624 117.13163 284.8517 117.28385 284.9401 117.56C 285.02847 117.83614 284.87625 118.13163 284.6001 118.22C 283.37164 118.79137 282.3084 119.66535 281.5101 120.76C 281.4501 120.840004 281.2801 121.08 281.3001 121.21C 281.32013 121.34 281.69012 121.52 282.1301 121.54C 283.01907 121.576805 283.90863 121.48246 284.7701 121.26C 285.18436 121.08838 285.60843 120.94145 286.0401 120.82C 286.30365 120.749725 286.57822 120.88701 286.6801 121.14C 286.77008 121.39925 286.64313 121.6838 286.3901 121.79C 285.97104 121.96968 285.54 122.12003 285.1001 122.24C 284.7557 122.37775 284.43768 122.57397 284.1601 122.82C 283.8601 123.1 283.3801 123.65 283.5901 124.12C 283.95132 124.63035 284.57407 124.88722 285.1901 124.78001C 285.35925 124.75956 285.5298 124.75287 285.7 124.76z" stroke="none" fill="#231F20" fill-rule="nonzero" />
	<g transform="matrix(0.49750003 0 0 0.49754906 -0 0.36764997)">
	</g>
    <path transform="matrix(0.49750003 0 0 0.49754906 -0 0.36764997)"  d="M221.2 106.64L202.41 153.37L196.69 99.78L221.2 106.64" stroke="none" fill="#231F20" fill-rule="nonzero" />
	<g transform="matrix(0.49750003 0 0 0.49754906 -0 0.36764997)">
	</g>
    <path transform="matrix(0.49750003 0 0 0.49754906 -0 0.36764997)"  d="M202.41 153.87L202.34 153.87C 202.11438 153.83601 201.93878 153.65633 201.91 153.43L201.91 153.43L196.19 99.829994C 196.17543 99.66575 196.24277 99.50488 196.37 99.399994C 196.49223 99.29034 196.66283 99.252426 196.81999 99.299995L196.81999 99.299995L221.34 106.159996C 221.47534 106.19911 221.5879 106.29352 221.65 106.42C 221.70499 106.55113 221.70499 106.69887 221.65 106.83L221.65 106.83L202.84999 153.56C 202.77621 153.74019 202.60452 153.86115 202.41 153.87zM197.26001 100.45L202.69 151.34L220.53 107z" stroke="none" fill="#231F20" fill-rule="nonzero" />
	<g transform="matrix(0.49750003 0 0 0.49754906 -0 0.36764997)">
	</g>
    <path transform="matrix(0.49750003 0 0 0.49754906 -0 0.36764997)"  d="M201.07 44.07C 203.47205 43.760143 205.81946 44.949715 206.99 47.07C 207.09775 45.078735 208.27681 43.30249 210.07 42.43C 211.8428 41.59547 213.77106 41.142365 215.73001 41.1C 218.44444 40.79541 221.19154 40.981712 223.84001 41.649998C 230.63 43.649998 234.79001 50.57 236.84001 57.35C 237.92001 60.96 238.75002 65.95 236.51001 69.35C 234.45001 72.479996 228.51001 74.619995 225.18001 76.1C 220.36 78.22 215.18001 79.75 209.89001 79.39C 195.98001 78.45 188.84001 64.19 193.20001 51.66C 194.20001 48.72 196.09001 45.88 198.94002 44.66C 199.61172 44.344826 200.33185 44.145355 201.07 44.07z" stroke="none" fill="#FFFFFF" fill-rule="nonzero" />
	<g transform="matrix(0.49750003 0 0 0.49754906 -0 0.36764997)">
	</g>
    <path transform="matrix(0.49750003 0 0 0.49754906 -0 0.36764997)"  d="M211.4 79.92C 210.87999 79.92 210.34999 79.92 209.82999 79.92C 203.7934 79.56404 198.28676 76.35584 195 71.28C 191.22179 65.38586 190.38719 58.073936 192.74 51.48C 193.98001 47.91 196.12001 45.3 198.74 44.14C 199.47765 43.826435 200.26105 43.63396 201.06001 43.57C 203.16942 43.3454 205.2608 44.131527 206.70001 45.69C 207.22563 44.092117 208.35646 42.76383 209.85 41.989998C 211.68262 41.11621 213.68018 40.642384 215.71 40.6C 218.48857 40.295498 221.29916 40.488518 224.01001 41.17C 229.95001 42.94 234.8 48.78 237.32 57.17C 238.43001 60.879997 239.26001 66.049995 236.93001 69.57C 235.06001 72.4 230.33 74.4 226.87001 75.86L226.87001 75.86L225.38 76.5C 221.00902 78.601135 216.24731 79.766014 211.4 79.92zM201.11 44.57C 200.42027 44.618046 199.74384 44.78377 199.11 45.06C 195.9 46.47 194.3 49.89 193.64 51.800003C 191.38174 58.10192 192.176 65.09503 195.79 70.73C 198.9242 75.53532 204.16135 78.55875 209.89 78.87C 214.36 79.18 219.29 78.11 224.95 75.630005C 225.41 75.420006 225.95 75.21001 226.45999 74.98C 229.79 73.57 234.35999 71.64001 236.06999 69.060005C 238.18 65.86001 237.37999 61.000004 236.32999 57.490005C 235.18 53.660004 231.65999 44.490005 223.68999 42.130005C 221.09644 41.479153 218.40703 41.299637 215.74998 41.600006C 213.86444 41.637154 212.00772 42.06982 210.29999 42.870007C 208.67183 43.65439 207.59366 45.256332 207.47998 47.060005C 207.48492 47.295944 207.32101 47.501896 207.08998 47.550007C 206.86281 47.605106 206.62836 47.49206 206.52998 47.280006C 205.52998 45.190006 203.09999 44.410007 201.09999 44.570007z" stroke="none" fill="#231F20" fill-rule="nonzero" />
	<g transform="matrix(0.49750003 0 0 0.49754906 -0 0.36764997)">
	</g>
    <path transform="matrix(0.49750003 0 0 0.49754906 -0 0.36764997)"  d="M220.59 91.91L221.2 106.64C 221.2 106.64 215.27 114.97 206.2 111.12L206.2 111.12L209.12 83.04C 209.12 83.04 216.76 80.46 217.20999 64.87C 224.39288 69.475174 232.6828 72.06232 241.20999 72.36C 241.20999 72.36 233.3 78.26 231 85.4L231 85.4L220.59 91.91z" stroke="none" fill="#FFFFFF" fill-rule="nonzero" />
	<g transform="matrix(0.49750003 0 0 0.49754906 -0 0.36764997)">
	</g>
    <path transform="matrix(0.49750003 0 0 0.49754906 -0 0.36764997)"  d="M210.92 112.63C 209.22318 112.62897 207.54364 112.28899 205.98 111.63C 196.70999 107.7 196.20999 100.17 196.19 99.85L196.19 99.85L199.11 71.7C 199.13141 71.50554 199.26425 71.34142 199.45 71.28C 199.52 71.28 206.76 68.56 207.2 53.57C 207.20482 53.38535 207.31308 53.2191 207.48 53.14C 207.6366 53.044563 207.83337 53.044563 207.98999 53.14C 215.1116 57.673065 223.31361 60.224117 231.74998 60.53C 232.00005 60.53877 232.20512 60.731026 232.22998 60.98C 232.29999 61.69 233.77998 78.41 231.41998 85.57C 229.34998 91.87 223.03998 92.41 221.10999 92.43L221.10999 92.43L221.69998 106.63C 221.71034 106.741 221.67818 106.8518 221.60999 106.939995C 221.56 107 217.46 112.63 210.92 112.63zM200.07 72.05L197.19 99.83C 197.19 100.04 197.7 106.98 206.37 110.66C 214.45999 114.08 219.87999 107.560005 220.7 106.490005L220.7 106.490005L220.09 91.93001C 220.0883 91.78858 220.14217 91.652145 220.23999 91.55001C 220.34499 91.45133 220.48622 91.400635 220.62999 91.41001C 220.95 91.41001 228.26999 91.92001 230.46999 85.250015C 232.55998 78.91002 231.46999 64.250015 231.26999 61.500015C 223.10297 61.102776 215.1637 58.676315 208.16998 54.440014C 207.52 67.87 201.53 71.39 200.07 72.05z" stroke="none" fill="#231F20" fill-rule="nonzero" />
	<g transform="matrix(0.49750003 0 0 0.49754906 -0 0.36764997)">
	</g>
    <path transform="matrix(0.49750003 0 0 0.49754906 -0 0.36764997)"  d="M203.56 79.11C 201.59314 79.614 199.50659 79.31541 197.76 78.28C 195.35657 76.72417 193.93301 74.03228 194 71.17C 193.95113 70.14396 194.12866 69.11973 194.52 68.17C 194.94293 67.21497 195.75475 66.48689 196.75 66.17C 197.99846 65.96835 199.27864 66.175285 200.4 66.759995C 202.12999 67.439995 202.23999 68.38999 203.31999 69.689995C 203.2 69.56999 203.09 69.21999 202.98 69.1" stroke="none" fill="#FFFFFF" fill-rule="nonzero" />
	<g transform="matrix(0.49750003 0 0 0.49754906 -0 0.36764997)">
	</g>
    <path transform="matrix(0.49750003 0 0 0.49754906 -0 0.36764997)"  d="M201.67 79.85C 200.20619 79.85001 198.76932 79.45625 197.51 78.71C 194.95227 77.07157 193.43568 74.216576 193.51 71.18C 193.44888 70.06084 193.64383 68.942474 194.08 67.91C 194.55559 66.80506 195.48517 65.95933 196.63 65.590004C 197.99419 65.35173 199.39885 65.56595 200.63 66.200005C 201.64479 66.57994 202.48701 67.31555 203 68.27L203 68.27L203.19 68.549995C 203.25427 68.57327 203.31241 68.61089 203.36 68.659996C 203.47409 68.78671 203.56543 68.93218 203.63 69.09C 203.65262 69.14526 203.67937 69.198746 203.71 69.25C 203.91711 69.44606 203.92607 69.772896 203.73001 69.98C 203.53395 70.18711 203.2071 70.19606 203 70L203 70L202.92 69.91C 202.61 69.53001 202.38 69.19 202.17 68.91C 201.761 68.12263 201.07271 67.516365 200.24 67.21001C 199.2222 66.67153 198.05913 66.47185 196.92 66.64001C 196.06978 66.90644 195.37218 67.52048 195 68.33C 194.6278 69.22482 194.46368 70.1925 194.52 71.16C 194.43788 73.8434 195.75569 76.376785 198 77.85C 199.63487 78.80954 201.58089 79.08959 203.42 78.63C 203.59863 78.58534 203.78752 78.63937 203.91551 78.77174C 204.0435 78.90411 204.09116 79.09471 204.04051 79.27174C 203.98987 79.44878 203.84863 79.58534 203.67 79.63C 203.01508 79.78617 202.34323 79.86008 201.67 79.85z" stroke="none" fill="#231F20" fill-rule="nonzero" />
	<g transform="matrix(0.49750003 0 0 0.49754906 -0 0.36764997)">
	</g>
    <path transform="matrix(0.49750003 0 0 0.49754906 -0 0.36764997)"  d="M220.91 99.65C 217.49615 99.74902 214.25282 98.15915 212.24 95.4C 208.74 90.69 209.62001 87.4 209.62001 87.4C 209.62001 87.4 214.18001 92.16 220.62001 91.94L220.62001 91.94L220.91 99.65z" stroke="none" fill="#231F20" fill-rule="nonzero" />
	<g transform="matrix(0.49750003 0 0 0.49754906 -0 0.36764997)">
	</g>
    <path transform="matrix(0.49750003 0 0 0.49754906 -0 0.36764997)"  d="M220.5 100.17C 217.0697 100.130005 213.85957 98.47305 211.84 95.7C 208.23999 90.85 209.09999 87.39 209.14 87.25C 209.18166 87.0748 209.31606 86.93657 209.49 86.89C 209.66742 86.83256 209.86201 86.874535 210 87C 210 87 214.49 91.55 220.59 91.38C 220.72482 91.36552 220.85933 91.40997 220.95897 91.501945C 221.05861 91.59392 221.11368 91.72445 221.11 91.86L221.11 91.86L221.43001 99.6C 221.44196 99.86534 221.24432 100.093704 220.98001 100.119995C 220.98001 100.119995 220.76 100.17 220.5 100.17zM210 88.43C 210.1413 90.87851 211.059 93.21833 212.62 95.11C 214.4317 97.594536 217.29599 99.09504 220.37 99.17L220.37 99.17L220.09 92.409996C 216.36874 92.28458 212.8048 90.878784 210 88.43z" stroke="none" fill="#231F20" fill-rule="nonzero" />
	<g transform="matrix(0.49750003 0 0 0.49754906 -0 0.36764997)">
	</g>
    <path transform="matrix(0.49750003 0 0 0.49754906 -0 0.36764997)"  d="M219.41 68.53C 219.41 68.53 223.41 76.61 222.08 77.75" stroke="none" fill="#FFFFFF" fill-rule="nonzero" />
	<g transform="matrix(0.49750003 0 0 0.49754906 -0 0.36764997)">
	</g>
    <path transform="matrix(0.49750003 0 0 0.49754906 -0 0.36764997)"  d="M220.44 78.73C 219.37607 78.69262 218.32689 78.469246 217.34 78.07C 217.152 78.02145 217.00911 77.86845 216.97351 77.677574C 216.9379 77.48671 217.016 77.29249 217.17386 77.17941C 217.3317 77.066345 217.54073 77.05488 217.70999 77.15C 218.51999 77.47 220.84 78.15 221.70999 77.37C 222.26999 76.9 220.95999 72.87 218.90999 68.75C 218.81334 68.58941 218.81464 68.38826 218.91333 68.22893C 219.01201 68.06959 219.19153 67.97883 219.37834 67.993805C 219.56517 68.00878 219.72794 68.12698 219.79999 68.3C 221.06999 70.840004 223.79999 76.880005 222.34999 78.130005C 221.80313 78.547295 221.12726 78.75961 220.44 78.73z" stroke="none" fill="#231F20" fill-rule="nonzero" />
	<g transform="matrix(0.105388656 -0.4862573 0.48620933 0.10539904 51.028576 130.53642)">
	</g>
    <path transform="matrix(0.105388656 -0.4862573 0.48620933 0.10539904 51.028576 130.53642)"  d="M211.72 67.22C 211.72 66.53517 212.50351 65.98 213.47 65.98C 214.4365 65.98 215.22 66.53517 215.22 67.22C 215.22 67.90483 214.4365 68.46 213.47 68.46C 212.50351 68.46 211.72 67.90483 211.72 67.22" stroke="none" fill="#231F20" fill-rule="nonzero" />
	<g transform="matrix(0.4956743 -0.04258564 0.042581435 0.49572316 -2.5173502 10.074831)">
	</g>
    <path transform="matrix(0.4956743 -0.04258564 0.042581435 0.49572316 -2.5173502 10.074831)"  d="M223.87999 68.79C 223.87999 67.8235 224.43517 67.04 225.12 67.04C 225.80482 67.04 226.36 67.8235 226.36 68.79C 226.36 69.7565 225.80482 70.54 225.12 70.54C 224.43517 70.54 223.87999 69.7565 223.87999 68.79" stroke="none" fill="#231F20" fill-rule="nonzero" />
	<g transform="matrix(0.49750003 0 0 0.49754906 -0 0.36764997)">
	</g>
    <path transform="matrix(0.49750003 0 0 0.49754906 -0 0.36764997)"  d="M219.87 88.92C 219.5342 88.91915 219.1993 88.885666 218.87 88.82C 216.73613 88.397514 214.9168 87.01363 213.94 85.07C 213.15727 83.51951 212.74965 81.806854 212.75 80.07C 212.74736 79.92436 212.80966 79.7851 212.92 79.69C 213.14 79.5 213.23 79.41 224.51 80.69C 224.75143 80.71884 224.93712 80.91719 224.95 81.16C 224.95 81.340004 225.2 85.72 222.70999 87.950005C 221.91142 88.60551 220.9027 88.95003 219.87 88.92zM213.75 80.549995C 213.80994 81.94429 214.17159 83.309 214.81 84.549995C 215.6263 86.232735 217.17165 87.446144 219 87.84C 220.0424 88.09178 221.14279 87.864365 222 87.21999C 223.74 85.66999 223.93 82.729996 223.93 81.649994C 220.43 81.24 215.32 80.67 213.75 80.55z" stroke="none" fill="#231F20" fill-rule="nonzero" />
	<g transform="matrix(0.49750003 0 0 0.49754906 -0 0.36764997)">
	</g>
    <path transform="matrix(0.49750003 0 0 0.49754906 -0 0.36764997)"  d="M214.36 84.84C 216.36 88.619995 220.57 89.159996 222.36 87.6C 221.78 86.13 220.83 84.65 219.31 84.229996C 217.64001 83.83711 215.88463 84.05343 214.36 84.84z" stroke="none" fill="#231F20" fill-rule="nonzero" />
	<g transform="matrix(0.49750003 0 0 0.49754906 -0 0.36764997)">
	</g>
    <path transform="matrix(0.49750003 0 0 0.49754906 -0 0.36764997)"  d="M219.88 88.91C 219.54477 88.907715 219.21028 88.87762 218.88 88.82001C 216.75052 88.3933 214.93593 87.01022 213.96 85.07001C 213.9048 84.94586 213.9048 84.80415 213.96 84.68001C 214.0039 84.55217 214.0977 84.447556 214.22 84.39001C 215.84732 83.5654 217.71265 83.33887 219.49 83.75001C 220.93001 84.14001 222.07 85.380005 222.87001 87.420006C 222.95064 87.61212 222.89812 87.83432 222.74 87.97001C 221.93373 88.62263 220.91621 88.957054 219.88 88.91zM215.08 85.07001C 215.93883 86.50366 217.36185 87.50922 219 87.84C 219.91843 88.04759 220.88124 87.90495 221.7 87.439995C 221.30475 86.18553 220.35834 85.18019 219.12999 84.70999C 217.77617 84.39452 216.35693 84.52068 215.08 85.07z" stroke="none" fill="#231F20" fill-rule="nonzero" />
	<g transform="matrix(0.49750003 0 0 0.49754906 -0 0.36764997)">
	</g>
    <path transform="matrix(0.49750003 0 0 0.49754906 -0 0.36764997)"  d="M143.12 152.21C 143.12 152.21 132.04999 157.1 122.119995 149.96C 112.19 142.82 87.06 86 87.06 86L87.06 86L97.92 80L128.31999 123.32L143.12 152.21z" stroke="none" fill="#FFFFFF" fill-rule="nonzero" />
	<g transform="matrix(0.49750003 0 0 0.49754906 -0 0.36764997)">
	</g>
    <path transform="matrix(0.49750003 0 0 0.49754906 -0 0.36764997)"  d="M134.37 154.34C 129.86763 154.37584 125.47122 152.9746 121.81999 150.34C 111.88999 143.20999 87.619995 88.45 86.59 86.119995C 86.48369 85.87611 86.57862 85.591324 86.81 85.45999L86.81 85.45999L97.67 79.53999C 97.9017 79.41655 98.18908 79.485176 98.34 79.7L98.34 79.7L128.73999 123.02L143.58 152C 143.635 152.13113 143.635 152.27887 143.58 152.41C 143.53838 152.54245 143.43915 152.64903 143.31 152.7C 140.45766 153.79698 137.42598 154.35313 134.37 154.34zM87.72 86.18C 90.08 91.46 113.17 142.9 122.42 149.54001C 130.79 155.54001 140.14 152.76001 142.42 151.94L142.42 151.94L127.88 123.590004L97.76 80.71z" stroke="none" fill="#231F20" fill-rule="nonzero" />
	<g transform="matrix(0.49750003 0 0 0.49754906 -0 0.36764997)">
	</g>
    <path transform="matrix(0.49750003 0 0 0.49754906 -0 0.36764997)"  d="M101 85.71C 102.08873 79.216576 102.520905 72.63002 102.29 66.05C 102.29 64.700005 101.590004 62.880005 100.29 63.160004C 99.61 63.310005 99.200005 64.01 98.92 64.65C 97.576385 67.71655 96.894875 71.0321 96.92 74.380005C 95.64 71.16 94.39334 67.94667 93.18 64.74C 92.8 63.739998 90.5 56.17 89.36 59.489998C 88.82 61.03 89.54 63.429996 89.73 65C 89.990005 67.12667 90.32333 69.25 90.73 71.37C 90.490005 69.87 88.22 58.870003 86.18 60.370003C 84.48 61.660004 85.95 64.630005 86.27 66.240005C 86.729996 68.55 86.85999 71.39001 87.74 73.58C 86.61 70.89 85.38 68.25 84.02 65.68C 83.68 65.02 82.84 62.68 82.10999 62.420002C 81.37999 62.160004 80.479996 63.36 80.399994 64.060005C 80.229996 65.590004 81.329994 68.14001 81.71999 69.66C 82.23999 71.66 82.95 73.66 83.659996 75.66C 83.079994 74.03001 81.659996 72.600006 80.85999 71.100006C 80.16999 69.87 79.67999 68.100006 78.34 67.36001C 77.93119 67.11713 77.43747 67.062416 76.985405 67.209915C 76.53334 67.35741 76.16689 67.692764 75.979996 68.130005C 75.91265 68.59517 75.989426 69.0698 76.2 69.490005C 79.92737 79.28612 85.3426 88.35326 92.2 96.28001" stroke="none" fill="#FFFFFF" fill-rule="nonzero" />
	<g transform="matrix(0.49750003 0 0 0.49754906 -0 0.36764997)">
	</g>
    <path transform="matrix(0.49750003 0 0 0.49754906 -0 0.36764997)"  d="M92.12 96.85C 91.9727 96.84685 91.83258 96.78577 91.73 96.68C 84.85623 88.709114 79.44016 79.58979 75.73 69.74C 75.478935 69.221634 75.39507 68.638084 75.490005 68.07C 75.62194 67.54503 75.99199 67.112076 76.490005 66.9C 77.160934 66.608215 77.926926 66.6302 78.58 66.96C 79.63732 67.68763 80.42752 68.741234 80.83 69.96C 80.990005 70.31 81.14 70.64 81.310005 70.96C 81.48001 71.28 81.560005 71.39 81.700005 71.61C 81.53001 71.04 81.37 70.46 81.22 69.89C 81.11 69.47 80.950005 68.97 80.770004 68.44C 80.17943 67.03332 79.867004 65.525536 79.85 64C 79.979 63.268368 80.39247 62.617588 81 62.19C 81.35547 61.951065 81.79839 61.881516 82.21 62C 82.94 62.2 83.5 63.36 84.14 64.85C 84.26 65.119995 84.36 65.36 84.44 65.51C 85.020004 66.61 85.57 67.72 86.11 68.85L86.11 68.85L86.11 68.78C 85.99 67.94 85.88 67.15 85.73 66.409996C 85.64828 66.01787 85.544785 65.63061 85.420006 65.24999C 84.91 63.559994 84.22001 61.249992 85.840004 60.02999C 86.15657 59.746918 86.60691 59.669273 87 59.83C 87.86207 60.428303 88.49367 61.303364 88.79 62.31C 88.5961 61.3148 88.633736 60.28833 88.9 59.31C 89.17 58.52 89.57 58.13 90.090004 58.13C 91.090004 58.13 92.020004 59.7 93.490005 63.95C 93.58 64.22 93.65001 64.43 93.700005 64.54C 94.630005 66.950005 95.55 69.39 96.44 71.82C 96.715294 69.26708 97.3902 66.773315 98.44 64.43C 98.694084 63.587868 99.34386 62.92316 100.18 62.65C 100.67105 62.535816 101.187325 62.653824 101.58 62.97C 102.35205 63.78762 102.7722 64.875694 102.75 66C 102.99087 72.6167 102.558655 79.24071 101.46 85.770004C 101.4406 85.90548 101.36651 86.027084 101.25501 86.10645C 101.143524 86.18582 101.004364 86.21602 100.87 86.19C 100.733734 86.16813 100.612144 86.09197 100.533 85.978905C 100.45385 85.86584 100.42391 85.725525 100.450005 85.590004C 101.532036 79.132904 101.957535 72.582825 101.72 66.04001C 101.735054 65.203476 101.439316 64.39109 100.89 63.76001C 100.73335 63.632576 100.525116 63.587955 100.33 63.64001C 99.86 63.73001 99.54 64.33001 99.33 64.83001C 98.006645 67.829124 97.325386 71.07192 97.33 74.350006C 97.328964 74.60167 97.147865 74.81646 96.9 74.86001C 96.65154 74.9093 96.40456 74.768776 96.32 74.53001C 95.159996 71.33001 93.95 68.08001 92.71 64.90001C 92.71 64.77001 92.59 64.55001 92.49 64.27001C 91.049995 60.07001 90.36 59.27001 90.07 59.14001C 89.98505 59.294426 89.911514 59.454857 89.85 59.62001C 89.60176 60.934505 89.65303 62.28805 90 63.58C 90.09 64.07 90.17 64.58 90.22 64.94C 90.48 67.020004 90.79 69.130005 91.16 71.19C 91.15789 71.21996 91.15789 71.25004 91.16 71.28C 91.14685 71.522606 90.967445 71.72376 90.72792 71.76448C 90.48839 71.80521 90.252594 71.67463 90.16 71.45C 90.16 71.21 90.08 70.96999 90.03001 70.729996C 89.43001 67.53 87.78001 61.259995 86.57001 60.779995C 86.57001 60.779995 86.51001 60.779995 86.44001 60.779995C 85.44001 61.569996 85.94001 63.409996 86.38001 64.88C 86.51001 65.34 86.640015 65.77 86.710014 66.13C 86.87002 66.909996 86.98001 67.71 87.10001 68.56C 87.25198 70.19903 87.58742 71.8158 88.10001 73.38C 88.20771 73.65614 88.07116 73.9673 87.79501 74.075C 87.51887 74.18269 87.20771 74.04614 87.10001 73.77C 85.99001 71.119995 84.750015 68.46999 83.41001 65.92C 83.320015 65.759995 83.210014 65.49 83.070015 65.189995C 82.820015 64.60999 82.16001 63.069996 81.80002 62.919994C 81.669395 62.88743 81.5311 62.921066 81.430016 63.009995C 81.07354 63.28286 80.831184 63.678467 80.750015 64.119995C 80.80527 65.45842 81.08937 66.77749 81.59001 68.02C 81.77001 68.57 81.94001 69.09 82.06001 69.53C 82.59001 71.619995 83.34001 73.68 83.99001 75.53C 84.052536 75.70863 84.01501 75.90705 83.89156 76.050514C 83.76813 76.19398 83.57753 76.26069 83.39156 76.22552C 83.205605 76.190346 83.052536 76.05863 82.99001 75.88C 82.57366 74.91252 82.03602 74.00189 81.390015 73.17C 80.96896 72.601105 80.57844 72.01031 80.22002 71.4C 80.040016 71.08 79.87002 70.71 79.70002 70.340004C 79.37288 69.348785 78.74776 68.4827 77.91002 67.86C 77.531624 67.68973 77.09841 67.68973 76.72002 67.86C 76.51397 67.944984 76.35639 68.11722 76.290016 68.33C 76.25834 68.694984 76.32752 69.06165 76.49001 69.39C 80.220314 79.13466 85.643745 88.14326 92.51 96C 92.6021 96.10257 92.64874 96.23805 92.63932 96.37557C 92.629906 96.5131 92.565216 96.64095 92.46 96.73C 92.36376 96.80777 92.24373 96.850136 92.12 96.85z" stroke="none" fill="#231F20" fill-rule="nonzero" />
	<g transform="matrix(0.49750003 0 0 0.49754906 -0 0.36764997)">
	</g>
    <path transform="matrix(0.49750003 0 0 0.49754906 -0 0.36764997)"  d="M91.71 86.47C 91.4824 86.469826 91.28247 86.318855 91.22 86.1C 89 78.25 96.47 74 96.55 73.93C 96.79879 73.81118 97.09708 73.90719 97.22984 74.14883C 97.36261 74.390465 97.2837 74.69372 97.05 74.840004C 96.770004 74.990005 90.18 78.76 92.21001 85.840004C 92.28763 86.11311 92.131836 86.397995 91.86001 86.48L91.86001 86.48L91.71 86.47z" stroke="none" fill="#231F20" fill-rule="nonzero" />
	<g transform="matrix(0.49750003 0 0 0.49754906 -0 0.36764997)">
	</g>
    <path transform="matrix(0.49750003 0 0 0.49754906 -0 0.36764997)"  d="M155.94 183.26L151.69 195.74L234.48 195.74L234.48 184.4L155.94 183.26" stroke="none" fill="#FFFFFF" fill-rule="nonzero" />
	<g transform="matrix(0.49750003 0 0 0.49754906 -0 0.36764997)">
	</g>
    <path transform="matrix(0.49750003 0 0 0.49754906 -0 0.36764997)"  d="M234.48 196.25L151.69 196.25C 151.52531 196.2477 151.37065 196.17038 151.27 196.04C 151.17564 195.90207 151.15332 195.7272 151.21 195.56999L151.21 195.56999L155.45001 183.09999C 155.50795 182.87625 155.71996 182.72784 155.95001 182.74998L155.95001 182.74998L234.49002 183.87999C 234.77107 183.89055 234.99492 184.11879 235.00002 184.4L235.00002 184.4L235.00002 195.73999C 234.99458 196.02327 234.76334 196.25006 234.48 196.25zM152.41 195.25L234 195.25L234 184.91L156.35 183.78z" stroke="none" fill="#231F20" fill-rule="nonzero" />
	<g transform="matrix(0.49750003 0 0 0.49754906 -0 0.36764997)">
	</g>
    <path transform="matrix(0.49750003 0 0 0.49754906 -0 0.36764997)"  d="M235.94 168.94C 235.8016 168.93271 235.67242 168.86829 235.58333 168.76213C 235.49422 168.65596 235.45319 168.51758 235.47 168.38L235.47 168.38L240.16 113.83C 240.1673 113.69159 240.23172 113.562416 240.33788 113.47331C 240.44405 113.38421 240.58243 113.34317 240.72 113.36C 240.85542 113.3702 240.98119 113.434 241.06941 113.53724C 241.15762 113.64048 241.20103 113.77465 241.19 113.91L241.19 113.91L236.5 168.47C 236.47354 168.7536 236.22388 168.96313 235.94 168.94z" stroke="none" fill="#231F20" fill-rule="nonzero" />
	<g transform="matrix(0.49750003 0 0 0.49754906 -0 0.36764997)">
	</g>
    <path transform="matrix(0.49750003 0 0 0.49754906 -0 0.36764997)"  d="M149.08 147.81C 148.92183 147.81102 148.77147 147.74135 148.67 147.62C 148.58453 147.51413 148.5449 147.37852 148.55994 147.24332C 148.57497 147.10811 148.64339 146.9845 148.75 146.9L148.75 146.9L172.47 127.56999C 172.6922 127.43405 172.9807 127.4835 173.14494 127.68566C 173.3092 127.887825 173.29854 128.18033 173.12 128.37L173.12 128.37L149.4 147.7C 149.30936 147.77275 149.1962 147.81165 149.08 147.81z" stroke="none" fill="#231F20" fill-rule="nonzero" />
	<g transform="matrix(0.49750003 0 0 0.49754906 -0 0.36764997)">
	</g>
    <path transform="matrix(0.49750003 0 0 0.49754906 -0 0.36764997)"  d="M73.18 156.7L74.94 156.7C 75.00131 156.7259 75.064926 156.746 75.130005 156.76C 77.77499 156.90508 80.33017 157.76949 82.520004 159.26C 87.447975 162.38205 90.14381 168.0577 89.450005 173.84999C 89.172485 177.28923 87.67596 180.51633 85.23 182.95C 81.940025 186.46164 77.17988 188.20541 72.4 187.65C 69.91441 187.42928 67.52766 186.5717 65.47 185.15999C 61.77656 182.73875 59.305832 178.84315 58.690002 174.46999C 58.620003 174.01999 58.570004 173.56999 58.510002 173.12999L58.510002 173.12999L58.510002 171.37L58.570004 171.04C 58.660004 170.39 58.710003 169.71999 58.850002 169.04C 60.183426 162.6442 65.38176 157.76976 71.850006 156.84999C 72.26 156.81 72.72 156.76 73.18 156.7zM85.4 180.87C 87.15929 178.56189 88.16802 175.76956 88.29 172.87L88.29 172.87L82.14 172.87C 82.04 173.97 81.979996 175.06 81.83 176.14C 81.68001 177.22 81.47 178.27 81.28 179.29zM59.78 172.87C 59.901974 175.76956 60.9107 178.56189 62.67 180.87L62.67 180.87L66.83 179.25C 66.297714 177.15718 66.01244 175.00922 65.98 172.85zM88.27 171.62C 88.39 169.33 86.729996 164.79999 85.38 163.62L85.38 163.62L81.24 165.22C 81.768715 167.31378 82.05724 169.46094 82.1 171.62zM66.829994 165.23L62.689995 163.62C 61.189995 165.2 59.539993 169.73 59.819996 171.62L59.819996 171.62L66 171.62C 66.02503 169.45822 66.303604 167.30687 66.83 165.21zM74.659996 178.43C 75.57 178.5 76.46 178.54999 77.34 178.65C 78.21999 178.75 79.10999 178.9 80.009995 179.04C 80.009995 178.95999 80.009995 178.87999 80.079994 178.79C 80.537476 176.94998 80.79233 175.06543 80.84 173.17C 80.84 172.91 80.78 172.84999 80.53 172.84999L80.53 172.84999L74.93 172.84999L74.66 172.84999zM67.229996 172.85999C 67.233246 174.93053 67.49187 176.99275 68 179L68 179L73.35 178.39L73.35 172.87zM80.85 171.60999C 80.82269 169.5511 80.54738 167.50299 80.03 165.50998L80.03 165.50998L74.659996 166.11998L74.659996 171.60999zM68 165.49C 67.48311 167.48286 67.2111 169.53131 67.19 171.59001L67.19 171.59001L73.4 171.59001L73.4 166.1zM79.61 164.21C 79.1904 162.86327 78.573715 161.58609 77.78 160.42001C 77.24761 159.6005 76.53214 158.91583 75.69 158.42001C 75.36 158.24002 75 158.13002 74.62 157.97002L74.62 157.97002L74.62 164.76001C 76.31019 164.73456 77.994255 164.55042 79.65 164.21zM74.61 179.69L74.61 186.41C 75.35817 186.27357 76.05195 185.92668 76.61 185.41C 77.77107 184.29103 78.66343 182.92343 79.22 181.41C 79.36 181.06 79.49 180.7 79.630005 180.31C 78 179.94693 76.33922 179.73933 74.67 179.69zM73.340004 186.43001L73.340004 179.68001C 71.658844 179.71623 69.98481 179.91042 68.340004 180.26001C 68.630005 180.97002 68.89001 181.66 69.200005 182.32C 69.724396 183.5164 70.49833 184.58698 71.47 185.46C 72.01589 185.94884 72.68201 186.28362 73.4 186.43zM68.29 164.19C 69.951065 164.54352 71.64206 164.73773 73.340004 164.77L73.340004 164.77L73.340004 158C 72.826294 158.09798 72.34107 158.30983 71.920006 158.62C 70.907616 159.35081 70.090324 160.3192 69.54001 161.44C 69.15 162.34 68.78 163.26 68.35 164.19zM84.46 181.91C 83.30479 181.3196 82.08725 180.86008 80.83 180.54001C 80.23388 182.54842 79.21049 184.40416 77.83 185.98001C 80.395256 185.27225 82.712135 183.86272 84.52 181.91zM70.2 158.53C 68.649994 158.59 64.369995 161.20999 63.559998 162.63L63.559998 162.63L67.11 164C 67.56 163 67.95 162 68.4 161.11C 68.8627 160.16194 69.46995 159.29155 70.2 158.53zM63.549995 181.91C 65.364555 183.86865 67.68761 185.28464 70.26 186C 68.843925 184.42833 67.79828 182.55914 67.200005 180.53C 65.935265 180.8511 64.71084 181.31404 63.55 181.91zM77.92999 158.54001C 78.623856 159.30278 79.20935 160.15747 79.66999 161.08C 80.10999 162.01 80.50999 162.95 80.92999 163.91C 82.175224 163.59247 83.37981 163.13278 84.51999 162.54001C 82.74509 160.61118 80.46029 159.22435 77.93 158.54z" stroke="none" fill="#D1D3D4" fill-rule="nonzero" />
	<g transform="matrix(0.49750003 0 0 0.49754906 -0 0.36764997)">
	</g>
    <path transform="matrix(0.49750003 0 0 0.49754906 -0 0.36764997)"  d="M311.31 190.22L274.43 190.22C 274.15384 190.22 273.93 189.99614 273.93 189.72L273.93 189.72L273.93 169.4C 273.93533 169.12608 274.1561 168.90532 274.43 168.9L274.43 168.9L311.31 168.9C 311.58615 168.9 311.81 169.12386 311.81 169.4L311.81 169.4L311.81 189.72C 311.81 189.99614 311.58615 190.22 311.31 190.22zM274.93 189.22L310.81 189.22L310.81 169.9L274.93 169.9z" stroke="none" fill="#D1D3D4" fill-rule="nonzero" />
	<g transform="matrix(0.49750003 0 0 0.49754906 -0 0.36764997)">
	</g>
    <path transform="matrix(0.49750003 0 0 0.49754906 -0 0.36764997)"  d="M292.88 182.58C 292.77942 182.58073 292.6813 182.5492 292.6 182.49L292.6 182.49L274.15 169.81C 273.99298 169.71251 273.90256 169.53636 273.91486 169.35196C 273.92715 169.16756 274.0402 169.00497 274.20874 168.92918C 274.37732 168.85341 274.5739 168.87679 274.72 168.98999L274.72 168.98999L292.88 181.46999L311 169C 311.1461 168.8868 311.34268 168.86342 311.51126 168.9392C 311.6798 169.01498 311.79285 169.17757 311.80515 169.36197C 311.81744 169.54637 311.72702 169.72252 311.57 169.82L311.57 169.82L293.13 182.5C 293.05597 182.54988 292.96924 182.57764 292.88 182.58z" stroke="none" fill="#D1D3D4" fill-rule="nonzero" />
	<g transform="matrix(0.49750003 0 0 0.49754906 -0 0.36764997)">
	</g>
    <path transform="matrix(0.49750003 0 0 0.49754906 -0 0.36764997)"  d="M274.43 190.22C 274.21274 190.21733 274.0221 190.0747 273.95822 189.86708C 273.89432 189.65944 273.9718 189.43431 274.15 189.31L274.15 189.31L288.93 179.15C 289.07608 179.03679 289.27267 179.01341 289.44125 179.08919C 289.6098 179.16498 289.72284 179.32756 289.73514 179.51196C 289.74744 179.69637 289.657 179.87251 289.5 179.97L289.5 179.97L274.72 190.13C 274.63446 190.1882 274.53348 190.21953 274.43 190.22z" stroke="none" fill="#D1D3D4" fill-rule="nonzero" />
	<g transform="matrix(0.49750003 0 0 0.49754906 -0 0.36764997)">
	</g>
    <path transform="matrix(0.49750003 0 0 0.49754906 -0 0.36764997)"  d="M311.31 190.22C 311.20984 190.21814 311.11246 190.18684 311.03 190.13L311.03 190.13L296.26 180C 296.103 179.90251 296.01257 179.72636 296.02487 179.54196C 296.03717 179.35756 296.1502 179.19498 296.31876 179.11919C 296.48734 179.04341 296.68393 179.06679 296.83002 179.18L296.83002 179.18L311.6 189.34C 311.7797 189.46538 311.85678 189.6931 311.79025 189.90184C 311.72375 190.11057 311.52908 190.2517 311.31 190.25L311.31 190.25L311.31 190.22z" stroke="none" fill="#D1D3D4" fill-rule="nonzero" />
	<g transform="matrix(0.49750003 0 0 0.49754906 -0 0.36764997)">
	</g>
    <path transform="matrix(0.49750003 0 0 0.49754906 -0 0.36764997)"  d="M325.66 142.35C 319.27576 142.35405 313.5181 138.51085 311.0731 132.61337C 308.62808 126.71588 309.9775 119.92619 314.49185 115.41186C 319.00616 110.89752 325.79587 109.54809 331.69336 111.993095C 337.59085 114.4381 341.43402 120.19576 341.43 126.58C 341.41348 135.28267 334.36267 142.33348 325.66 142.35zM325.66 111.8C 319.68112 111.79596 314.28873 115.39442 311.9979 120.91701C 309.7071 126.43959 310.96912 132.79837 315.19537 137.0275C 319.42166 141.25662 325.77957 142.52298 331.3037 140.2359C 336.82785 137.94882 340.42996 132.55887 340.43 126.58C 340.41898 118.425705 333.8143 111.816536 325.66 111.8z" stroke="none" fill="#D1D3D4" fill-rule="nonzero" />
	<g transform="matrix(0.49750003 0 0 0.49754906 -0 0.36764997)">
	</g>
    <path transform="matrix(0.49750003 0 0 0.49754906 -0 0.36764997)"  d="M330.09 141.69C 329.87155 141.68819 329.6785 141.54744 329.61 141.34L329.61 141.34L325.18 126.71999C 325.1315 126.573845 325.15765 126.4132 325.25 126.28999L325.25 126.28999L334.12 113.85999C 334.19653 113.750755 334.31354 113.676636 334.445 113.6541C 334.57645 113.63156 334.71146 113.66248 334.82 113.73999C 335.03925 113.9056 335.0879 114.21512 334.93 114.43999L334.93 114.43999L326.21 126.66998L330.57 141C 330.64874 141.26471 330.50247 141.54398 330.24002 141.63L330.24002 141.63L330.09 141.69z" stroke="none" fill="#D1D3D4" fill-rule="nonzero" />
	<g transform="matrix(0.49750003 0 0 0.49754906 -0 0.36764997)">
	</g>
    <path transform="matrix(0.49750003 0 0 0.49754906 -0 0.36764997)"  d="M325.65 127.08C 325.56976 127.077675 325.49112 127.05716 325.41998 127.020004L325.41998 127.020004L311.91998 119.880005C 311.761 119.79605 311.65887 119.63365 311.6521 119.45399C 311.6453 119.27432 311.7349 119.10469 311.8871 119.00899C 312.03928 118.913284 312.231 118.90605 312.38998 118.990005L312.38998 118.990005L325.88998 126.130005C 326.1327 126.2623 326.22583 126.56388 326.09998 126.810005C 326.01135 126.9762 325.83835 127.08 325.65 127.08z" stroke="none" fill="#D1D3D4" fill-rule="nonzero" />
	<g transform="matrix(0.49750003 0 0 0.49754906 -0 0.36764997)">
	</g>
    <path transform="matrix(0.49750003 0 0 0.49754906 -0 0.36764997)"  d="M114.8 184.11L109.560005 184.11C 109.28386 184.11 109.060005 183.88614 109.060005 183.61L109.060005 183.61L109.060005 159.61C 109.060005 159.33386 109.28386 159.11 109.560005 159.11L109.560005 159.11L114.8 159.11C 115.07615 159.11 115.3 159.33386 115.3 159.61L115.3 159.61L115.3 183.61C 115.3 183.88614 115.07615 184.11 114.8 184.11zM110.060005 183.11L114.3 183.11L114.3 160.11L110.060005 160.11z" stroke="none" fill="#D1D3D4" fill-rule="nonzero" />
	<g transform="matrix(0.49750003 0 0 0.49754906 -0 0.36764997)">
	</g>
    <path transform="matrix(0.49750003 0 0 0.49754906 -0 0.36764997)"  d="M126.26 184.11L121 184.11C 120.723854 184.11 120.5 183.88614 120.5 183.61L120.5 183.61L120.5 167C 120.5 166.72386 120.723854 166.5 121 166.5L121 166.5L126.24 166.5C 126.51614 166.5 126.74 166.72386 126.74 167L126.74 167L126.74 183.64C 126.72475 183.89682 126.51709 184.10016 126.26 184.11zM121.520004 183.11L125.76 183.11L125.76 167.47L121.520004 167.47z" stroke="none" fill="#D1D3D4" fill-rule="nonzero" />
	<g transform="matrix(0.49750003 0 0 0.49754906 -0 0.36764997)">
	</g>
    <path transform="matrix(0.49750003 0 0 0.49754906 -0 0.36764997)"  d="M137.72 184.11L132.48 184.11C 132.20386 184.11 131.98 183.88614 131.98 183.61L131.98 183.61L131.98 172.93C 131.98 172.65385 132.20386 172.43 132.48 172.43L132.48 172.43L137.72 172.43C 137.99614 172.43 138.22 172.65385 138.22 172.93L138.22 172.93L138.22 183.60999C 138.22 183.74258 138.16733 183.86977 138.07356 183.96353C 137.9798 184.05731 137.85262 184.10999 137.72 184.11zM132.98 183.11L137.22 183.11L137.22 173.43L133 173.43z" stroke="none" fill="#D1D3D4" fill-rule="nonzero" />
	<g transform="matrix(0.49750003 0 0 0.49754906 -0 0.36764997)">
	</g>
    <path transform="matrix(0.49750003 0 0 0.49754906 -0 0.36764997)"  d="M142.05 184.11L104.46 184.11C 104.18385 184.11 103.96 183.88614 103.96 183.61C 103.96 183.33386 104.18385 183.11 104.46 183.11L104.46 183.11L142.05 183.11C 142.32614 183.11 142.55 183.33386 142.55 183.61C 142.55 183.88614 142.32614 184.11 142.05 184.11z" stroke="none" fill="#D1D3D4" fill-rule="nonzero" />
	<g transform="matrix(0.49750003 0 0 0.49754906 -0 0.36764997)">
	</g>
    <path transform="matrix(0.49750003 0 0 0.49754906 -0 0.36764997)"  d="M85.51 123.46L63.38 123.46C 60.80083 123.46 58.71 121.36917 58.71 118.79L58.71 118.79L58.71 106.2C 58.71 103.62083 60.800827 101.53 63.379997 101.53L63.379997 101.53L85.51 101.53C 88.08917 101.53 90.18 103.62083 90.18 106.2L90.18 106.2L90.18 118.78999C 90.18001 120.02856 89.68799 121.21639 88.812195 122.092186C 87.9364 122.96798 86.748566 123.46 85.51 123.46zM63.38 102.53C 61.353115 102.53 59.71 104.17311 59.71 106.2L59.71 106.2L59.71 118.78999C 59.715492 120.8146 61.355392 122.4545 63.379997 122.45999L63.379997 122.45999L85.51 122.45999C 87.53689 122.45999 89.18 120.81688 89.18 118.78999L89.18 118.78999L89.18 106.2C 89.18 104.17311 87.53689 102.53 85.51 102.53z" stroke="none" fill="#D1D3D4" fill-rule="nonzero" />
	<g transform="matrix(0.49750003 0 0 0.49754906 -0 0.36764997)">
	</g>
    <path transform="matrix(0.49750003 0 0 0.49754906 -0 0.36764997)"  d="M69.36 119.38C 69.26685 119.38291 69.175385 119.35477 69.1 119.299995C 68.95165 119.212 68.860504 119.05248 68.86 118.88L68.86 118.88L68.86 106.11C 68.862755 105.93548 68.952896 105.77397 69.1 105.68C 69.248505 105.59425 69.43149 105.59425 69.58 105.68L69.58 105.68L82.72 112C 82.898285 112.08122 83.0127 112.25909 83.0127 112.455C 83.0127 112.65092 82.898285 112.82878 82.72 112.91L82.72 112.91L69.58 119.29C 69.51426 119.33597 69.43911 119.366714 69.36 119.38zM69.86 106.909996L69.86 118.079994L81.36 112.49999z" stroke="none" fill="#D1D3D4" fill-rule="nonzero" />
	<g transform="matrix(0.49750003 0 0 0.49754906 -0 0.36764997)">
	</g>
    <path transform="matrix(0.49750003 0 0 0.49754906 -0 0.36764997)"  d="M153.39 95.8L121.68 95.8C 121.403854 95.8 121.18 95.57615 121.18 95.3L121.18 95.3L121.18 73.15C 121.18 72.873856 121.403854 72.65 121.68 72.65L121.68 72.65L153.39 72.65C 153.66614 72.65 153.89 72.873856 153.89 73.15L153.89 73.15L153.89 95.3C 153.89 95.57615 153.66614 95.8 153.39 95.8zM122.18 94.8L152.89 94.8L152.89 73.65L122.18 73.65z" stroke="none" fill="#D1D3D4" fill-rule="nonzero" />
	<g transform="matrix(0.49750003 0 0 0.49754906 -0 0.36764997)">
	</g>
    <path transform="matrix(0.49750003 0 0 0.49754906 -0 0.36764997)"  d="M121.68 95.8C 121.57169 95.80074 121.4662 95.76557 121.38 95.700005C 121.16407 95.5314 121.11992 95.22233 121.28 95.00001L121.28 95.00001L133.8 78.14C 133.8949 78.02171 134.03836 77.95289 134.19 77.95289C 134.34164 77.95289 134.4851 78.02171 134.58 78.14L134.58 78.14L144.38 89.75C 144.5595 89.96262 144.53262 90.2805 144.31999 90.46C 144.10736 90.639496 143.78949 90.612625 143.61 90.4L143.61 90.4L134.22 79.270004L122.08 95.6C 121.984566 95.724686 121.83701 95.79846 121.68 95.8z" stroke="none" fill="#D1D3D4" fill-rule="nonzero" />
	<g transform="matrix(0.49750003 0 0 0.49754906 -0 0.36764997)">
	</g>
    <path transform="matrix(0.49750003 0 0 0.49754906 -0 0.36764997)"  d="M141.31 87.37C 141.20654 87.36952 141.10558 87.33819 141.02 87.28001C 140.7987 87.12111 140.74535 86.814285 140.90001 86.590004L140.90001 86.590004L146 79.26C 146.08493 79.137314 146.22113 79.06001 146.37 79.05C 146.51906 79.03766 146.6658 79.09269 146.76999 79.200005L146.76999 79.200005L153.76999 86.53001C 153.86406 86.62217 153.91707 86.748314 153.91707 86.880005C 153.91707 87.011696 153.86406 87.13784 153.76999 87.23C 153.6761 87.32466 153.5483 87.37791 153.41498 87.37791C 153.28166 87.37791 153.15385 87.32466 153.05998 87.23L153.05998 87.23L146.46999 80.340004L141.74998 87.170006C 141.6487 87.309395 141.48163 87.38533 141.31 87.37z" stroke="none" fill="#D1D3D4" fill-rule="nonzero" />
	<g transform="matrix(0.49750003 0 0 0.49754906 -0 0.36764997)">
	</g>
    <path transform="matrix(0.49750003 0 0 0.49754906 -0 0.36764997)"  d="M141.86 80.05C 140.50137 80.05 139.4 78.948616 139.4 77.59C 139.40001 76.23138 140.50139 75.130005 141.86 75.130005C 143.21863 75.130005 144.32 76.231384 144.32 77.590004C 144.32 78.24244 144.06082 78.86815 143.59949 79.32949C 143.13814 79.79083 142.51242 80.05 141.86 80.05zM141.86 76.130005C 141.05367 76.130005 140.4 76.783676 140.4 77.59001C 140.40001 78.39635 141.05367 79.05 141.86 79.05C 142.66634 79.05 143.32 78.39634 143.32 77.590004C 143.32 77.20278 143.16618 76.83143 142.89238 76.55762C 142.61858 76.28381 142.24721 76.13 141.86 76.13z" stroke="none" fill="#D1D3D4" fill-rule="nonzero" />
	<g transform="matrix(0.49750003 0 0 0.49754906 -0 0.36764997)">
	</g>
    <path transform="matrix(0.49750003 0 0 0.49754906 -0 0.36764997)"  d="M314.65 149.68L296.44998 149.68C 296.17383 149.68 295.94998 149.45613 295.94998 149.18C 295.94998 148.90385 296.17383 148.68 296.44998 148.68L296.44998 148.68L314.65 148.68C 314.92615 148.68 315.15 148.90385 315.15 149.18C 315.15 149.45613 314.92615 149.68 314.65 149.68z" stroke="none" fill="#D1D3D4" fill-rule="nonzero" />
	<g transform="matrix(0.49750003 0 0 0.49754906 -0 0.36764997)">
	</g>
    <path transform="matrix(0.49750003 0 0 0.49754906 -0 0.36764997)"  d="M314.65 153.6L296.44998 153.6C 296.17383 153.6 295.94998 153.37614 295.94998 153.1C 295.94998 152.82387 296.17383 152.6 296.44998 152.6L296.44998 152.6L314.65 152.6C 314.92615 152.6 315.15 152.82387 315.15 153.1C 315.15 153.37614 314.92615 153.6 314.65 153.6z" stroke="none" fill="#D1D3D4" fill-rule="nonzero" />
	<g transform="matrix(0.49750003 0 0 0.49754906 -0 0.36764997)">
	</g>
    <path transform="matrix(0.49750003 0 0 0.49754906 -0 0.36764997)"  d="M309.12 157.53L296.45 157.53C 296.17386 157.53 295.95 157.30614 295.95 157.03C 295.95 156.75386 296.17386 156.53 296.45 156.53L296.45 156.53L309.12003 156.53C 309.39618 156.53 309.62003 156.75386 309.62003 157.03C 309.62 157.16261 309.56732 157.2898 309.47354 157.38356C 309.37976 157.47733 309.25256 157.53001 309.12 157.53z" stroke="none" fill="#D1D3D4" fill-rule="nonzero" />
	<g transform="matrix(0.49750003 0 0 0.49754906 -0 0.36764997)">
	</g>
    <path transform="matrix(0.49750003 0 0 0.49754906 -0 0.36764997)"  d="M94.33 134L63.51 134C 63.331364 134 63.1663 133.9047 63.076984 133.75C 62.98767 133.5953 62.98767 133.4047 63.076984 133.25C 63.1663 133.0953 63.331364 133 63.51 133L63.51 133L94.33 133C 94.60615 133 94.83 133.22386 94.83 133.5C 94.83 133.77614 94.60615 134 94.33 134z" stroke="none" fill="#D1D3D4" fill-rule="nonzero" />
	<g transform="matrix(0.49750003 0 0 0.49754906 -0 0.36764997)">
	</g>
    <path transform="matrix(0.49750003 0 0 0.49754906 -0 0.36764997)"  d="M94.33 137.91L63.51 137.91C 63.233856 137.91 63.01 137.68614 63.01 137.41C 63.01 137.13387 63.233856 136.91 63.51 136.91L63.51 136.91L94.33 136.91C 94.60391 136.91533 94.824684 137.1361 94.83 137.41C 94.83 137.68614 94.60615 137.91 94.33 137.91z" stroke="none" fill="#D1D3D4" fill-rule="nonzero" />
	<g transform="matrix(0.49750003 0 0 0.49754906 -0 0.36764997)">
	</g>
    <path transform="matrix(0.49750003 0 0 0.49754906 -0 0.36764997)"  d="M85 141.84L63.51 141.84C 63.233856 141.84 63.01 141.61613 63.01 141.34C 63.01 141.06386 63.233856 140.84 63.51 140.84L63.51 140.84L85 140.84C 85.276146 140.84 85.5 141.06386 85.5 141.34C 85.5 141.61613 85.276146 141.84 85 141.84z" stroke="none" fill="#D1D3D4" fill-rule="nonzero" />
	<g transform="matrix(0.49750003 0 0 0.49754906 -0 0.36764997)">
	</g>
    <path transform="matrix(0.49750003 0 0 0.49754906 -0 0.36764997)"  d="M331.87 166.59L329.44998 166.59L329.44998 165.11L332.16998 165.11L332.65997 162.95L330.22998 162.95L330.22998 161.45999L333 161.45999L333.81 157.76999L336.18 157.76999L335.37 161.45999L338.15 161.45999L338.96 157.76999L341.3 157.76999L340.49 161.45999L342.91998 161.45999L342.91998 163L340.16998 163L339.71 165.16L342.13998 165.16L342.13998 166.64L339.43997 166.64L338.61 170.34L336.25998 170.34L337.06998 166.64L334.27 166.64L333.46 170.34L331.12 170.34L331.87 166.59zM335 163L334.54 165.16L337.32 165.16L337.78 163z" stroke="none" fill="#D1D3D4" fill-rule="nonzero" />
	<g transform="matrix(0.49750003 0 0 0.49754906 -0 0.36764997)">
	</g>
    <path transform="matrix(0.49750003 0 0 0.49754906 -0 0.36764997)"  d="M296.05 176.37C 295.71164 176.83745 295.26117 177.21228 294.74 177.45999C 294.21924 177.71143 293.64822 177.84135 293.06998 177.84C 292.57053 177.84406 292.07492 177.75241 291.61 177.56999C 291.16592 177.4032 290.7584 177.15189 290.40997 176.82999C 290.06766 176.50693 289.79242 176.11954 289.59998 175.68999C 289.39832 175.2334 289.29605 174.73914 289.3 174.23999C 289.2967 173.74516 289.39542 173.25496 289.59 172.79999C 289.779 172.37102 290.05087 171.9836 290.38998 171.65999C 290.73126 171.33127 291.13162 171.07 291.56998 170.88998C 292.43463 170.55167 293.39117 170.53041 294.27 170.82999C 294.6706 170.96501 295.0433 171.1717 295.37 171.43999C 295.6953 171.7168 295.96072 172.05707 296.15 172.43999C 296.3553 172.86353 296.45804 173.3294 296.44998 173.79999C 296.45767 174.1019 296.4137 174.40291 296.31998 174.68999C 296.2557 174.92012 296.1507 175.13689 296.00998 175.32999C 295.899 175.49902 295.75635 175.64503 295.58997 175.75998C 295.44083 175.86266 295.2796 175.94662 295.10995 176.00998C 294.9647 176.06609 294.8138 176.10632 294.65994 176.12997C 294.53693 176.14221 294.41296 176.14221 294.28995 176.12997C 294.0822 176.14723 293.8755 176.08664 293.70996 175.95998C 293.6021 175.86935 293.5339 175.74016 293.51996 175.59998C 293.37262 175.74034 293.20795 175.86131 293.02997 175.95998C 292.79553 176.08125 292.53372 176.13982 292.26996 176.12997C 292.07672 176.13177 291.88547 176.0908 291.70996 176.00998C 291.538 175.92908 291.38474 175.8133 291.25995 175.66998C 291.13544 175.51904 291.04047 175.34604 290.97995 175.15999C 290.90988 174.94714 290.87607 174.72403 290.87994 174.49998C 290.87668 174.22128 290.92065 173.94403 291.00995 173.67998C 291.09604 173.4268 291.22455 173.19011 291.38995 172.97998C 291.5579 172.77692 291.76544 172.6102 291.99994 172.48997C 292.25528 172.36618 292.53625 172.3045 292.81995 172.30998C 293.0403 172.30513 293.25897 172.34953 293.45996 172.43999C 293.64072 172.53052 293.7827 172.68318 293.85995 172.86998L293.85995 172.86998L293.93994 172.42998L294.84995 172.42998L294.48996 174.33998L294.43997 174.60999C 294.43015 174.70639 294.43015 174.80356 294.43997 174.89998C 294.43704 174.98927 294.45413 175.07811 294.48996 175.15997C 294.5391 175.22507 294.61896 175.25931 294.69995 175.24997C 294.8085 175.2509 294.91537 175.22331 295.00995 175.16997C 295.11768 175.10728 295.20724 175.0177 295.26996 174.90997C 295.3565 174.77087 295.42062 174.61902 295.45996 174.45998C 295.58444 173.90356 295.5427 173.32286 295.33997 172.78998C 295.22675 172.50323 295.04877 172.24655 294.81998 172.03998C 294.58862 171.8344 294.31583 171.68092 294.02 171.58998C 293.6963 171.48906 293.35904 171.43848 293.02 171.43999C 292.644 171.43713 292.27087 171.50497 291.91998 171.63998C 291.60135 171.7703 291.31476 171.96817 291.08 172.21999C 290.83688 172.46758 290.64938 172.76418 290.53 173.08998C 290.395 173.44087 290.32715 173.81403 290.33 174.18999C 290.3217 174.58127 290.39667 174.96986 290.55 175.32999C 290.68372 175.65509 290.8848 175.94818 291.13998 176.18999C 291.40692 176.42523 291.71558 176.60838 292.05 176.72998C 292.4174 176.85283 292.80264 176.91367 293.19 176.90997C 293.52905 176.9118 293.86636 176.86122 294.19 176.75998C 294.48764 176.66403 294.76547 176.51495 295.01 176.31998L295.01 176.31998L296.05 176.37zM292.87997 173.23999C 292.73175 173.23773 292.58487 173.26848 292.44998 173.32999C 292.32373 173.38939 292.21133 173.47455 292.12 173.57999C 292.03378 173.69536 291.96628 173.82361 291.91998 173.95999C 291.8791 174.10646 291.8589 174.25793 291.86 174.40999C 291.856 174.4866 291.856 174.56339 291.86 174.63998C 291.87137 174.74464 291.90186 174.84633 291.94998 174.93999C 292.0081 175.04185 292.09055 175.12775 292.18997 175.18999C 292.32742 175.27531 292.4888 175.31389 292.64996 175.29999C 292.80905 175.30373 292.96674 175.26944 293.10995 175.19998C 293.22745 175.13095 293.32684 175.03499 293.39996 174.91998C 293.47205 174.80319 293.52286 174.67453 293.54996 174.53998C 293.56473 174.40372 293.56473 174.26624 293.54996 174.12997C 293.55728 173.90457 293.49814 173.682 293.37994 173.48997C 293.26245 173.332 293.0769 173.23923 292.88 173.24z" stroke="none" fill="#D1D3D4" fill-rule="nonzero" />
</g>
</svg>