<?xml version="1.0" encoding="UTF-8"?>
<svg width="558px" height="487px" viewBox="0 0 558 487" version="1.1" xmlns="http://www.w3.org/2000/svg" xmlns:xlink="http://www.w3.org/1999/xlink">
    <!-- Generator: Sketch 51.3 (57544) - http://www.bohemiancoding.com/sketch -->
    <title>Responsive Copy</title>
    <desc>Created with Sketch.</desc>
    <defs>
        <linearGradient x1="103.945293%" y1="46.0465527%" x2="66.2170537%" y2="55.5395327%" id="linearGradient-1">
            <stop stop-color="#091D3C" stop-opacity="0" offset="0%"></stop>
            <stop stop-color="#05142B" offset="100%"></stop>
        </linearGradient>
        <linearGradient x1="0%" y1="45.2818917%" x2="100%" y2="50%" id="linearGradient-2">
            <stop stop-color="#CBDFF1" offset="0%"></stop>
            <stop stop-color="#95B9EA" offset="100%"></stop>
        </linearGradient>
        <linearGradient x1="0%" y1="45.2818917%" x2="100%" y2="50%" id="linearGradient-3">
            <stop stop-color="#F5F6FD" offset="0%"></stop>
            <stop stop-color="#95B9EA" offset="100%"></stop>
        </linearGradient>
        <path d="M5.41244447,0.411156627 L114.175928,56.1962891 C117.276667,57.7866682 119.226724,60.9784558 119.226724,64.4632645 L119.226724,152.479045 C119.226724,154.531546 117.562843,156.195426 115.510342,156.195426 C114.920494,156.195426 114.339118,156.055027 113.814279,155.785835 L5.05079591,100.000703 C1.9500564,98.4103235 3.97947965e-15,95.2185359 3.55271368e-15,91.7337273 L-1.77635684e-15,3.71794676 C-2.93920914e-15,1.66544597 1.66388064,0.00156533773 3.71638142,0.00156533773 C4.30622911,0.00156533773 4.88760531,0.141964968 5.41244447,0.411156627 Z" id="path-4"></path>
        <filter x="-16.1%" y="-10.7%" width="132.2%" height="121.4%" filterUnits="objectBoundingBox" id="filter-6">
            <feGaussianBlur stdDeviation="1.54244346" in="SourceGraphic"></feGaussianBlur>
        </filter>
        <path d="M5.41244447,0.411156627 L114.175928,56.1962891 C117.276667,57.7866682 119.226724,60.9784558 119.226724,64.4632645 L119.226724,152.479045 C119.226724,154.531546 117.562843,156.195426 115.510342,156.195426 C114.920494,156.195426 114.339118,156.055027 113.814279,155.785835 L5.05079591,100.000703 C1.9500564,98.4103235 3.97947965e-15,95.2185359 3.55271368e-15,91.7337273 L-1.77635684e-15,3.71794676 C-2.93920914e-15,1.66544597 1.66388064,0.00156533773 3.71638142,0.00156533773 C4.30622911,0.00156533773 4.88760531,0.141964968 5.41244447,0.411156627 Z" id="path-7"></path>
        <linearGradient x1="-51.6820323%" y1="-129.348241%" x2="50%" y2="100%" id="linearGradient-9">
            <stop stop-color="#FFFFFF" offset="0%"></stop>
            <stop stop-color="#4577BB" offset="100%"></stop>
        </linearGradient>
        <filter x="-16.1%" y="-10.7%" width="132.2%" height="121.4%" filterUnits="objectBoundingBox" id="filter-10">
            <feGaussianBlur stdDeviation="1.54244346" in="SourceGraphic"></feGaussianBlur>
        </filter>
        <linearGradient x1="50%" y1="129.147677%" x2="50%" y2="0%" id="linearGradient-11">
            <stop stop-color="#D4B356" offset="0%"></stop>
            <stop stop-color="#F8CB5A" offset="100%"></stop>
        </linearGradient>
        <filter x="-52.3%" y="-45.1%" width="204.7%" height="190.2%" filterUnits="objectBoundingBox" id="filter-12">
            <feGaussianBlur stdDeviation="1.06863839" in="SourceGraphic"></feGaussianBlur>
        </filter>
        <filter x="-52.3%" y="-45.1%" width="204.7%" height="190.2%" filterUnits="objectBoundingBox" id="filter-13">
            <feGaussianBlur stdDeviation="1.06863839" in="SourceGraphic"></feGaussianBlur>
        </filter>
        <filter x="-52.3%" y="-45.1%" width="204.7%" height="190.2%" filterUnits="objectBoundingBox" id="filter-14">
            <feGaussianBlur stdDeviation="1.06863839" in="SourceGraphic"></feGaussianBlur>
        </filter>
        <linearGradient x1="63.5885924%" y1="73.090817%" x2="-13.0047894%" y2="0%" id="linearGradient-15">
            <stop stop-color="#F5F6FD" offset="0%"></stop>
            <stop stop-color="#BEC2D3" offset="100%"></stop>
        </linearGradient>
        <path d="M0.606363636,2.36526829 C-1.035,6.14517073 3.54409091,15.8771463 3.76293939,25.1246098 C3.82148485,27.5676829 11.2058788,29.9018293 11.9307273,23.1568537 C12.7092424,15.9110976 12.3398485,0.0148536585 12.3398485,0.0148536585 L0.606363636,2.36526829" id="path-16"></path>
        <path d="M0.441878788,1.09139024 C0.075969697,1.90621951 0.439787879,32.5726585 0.439787879,32.5726585 C2.01981818,33.9363659 5.23354545,34.0544878 6.83239394,32.8463902 C7.63181818,32.2416341 8.96024242,3.5875122 8.62569697,1.85104878 C8.29115152,0.116 0.856575758,0.166219512 0.441878788,1.09139024" id="path-18"></path>
        <path d="M4.53448485,0.302731707 C1.98706061,0.641536585 0.191666667,3.01317073 0.526212121,5.59770732 L1.53960606,13.4354878 C2.18221212,16.298 10.6991818,15.3494878 10.8274242,12.6779512 L9.75339394,4.36980488 C9.41884848,1.78314634 7.08260606,-0.0374878049 4.53448485,0.302731707" id="path-20"></path>
        <path d="M0.986212121,21.8879268 C0.869121212,24.328878 9.51154545,28.6024878 10.7138182,21.9275366 C12.006,14.758878 13.4333939,0.437121951 13.4333939,0.437121951 L1.23642424,0.413780488 C-0.665606061,4.06353659 1.42809091,12.6482439 0.986212121,21.8879268" id="path-22"></path>
        <path d="M8.78460606,1.08926829 C5.28790909,2.21814634 1.64833333,4.70082927 0.951363636,9.84302439 C0.169363636,15.6189756 0.971575758,36.424 1.06078788,42.4864146 C1.07612121,43.5042439 1.80793939,44.3516098 2.783,44.4909512 C10.0335758,45.5292927 21.7712424,41.8385122 23.9764545,36.9714634 C24.127697,36.6376098 24.1876364,36.2733415 24.1548788,35.9069512 C23.8321818,32.2932683 21.7384848,8.91502439 21.5112727,8.19921951 C19.9430909,3.248 14.9297879,-0.89404878 8.78460606,1.08926829" id="path-24"></path>
        <path d="M5.33669697,0.426512195 C3.38518182,3.07895122 0.287848485,29.9937805 0.287848485,29.9937805 C0.876090909,31.5951463 4.28845455,32.6257073 6.17793939,31.8752439 C7.1230303,31.4996585 14.1470909,4.2545122 14.2509394,2.48763415 C14.3554848,0.722170732 5.93887879,-0.393268293 5.33669697,0.426512195" id="path-26"></path>
        <path d="M8.54554545,2.43882927 C6.93624242,0.405292683 4.00827273,0.0806341463 2.00378788,1.71382927 C-5.99520433e-15,3.34631707 -0.319909091,6.31917073 1.28939394,8.352 L6.16609091,14.5148537 C8.17963636,16.6226585 14.9716061,11.3241463 13.7156667,8.97302439 L8.54554545,2.43882927" id="path-28"></path>
        <path d="M123.683,2.785 L49.218,45.938 C46.46,47.529 41.608,47.328 38.427,45.496 L3.239,25.967 C1.507,24.971 0.611,23.672 0.611,22.444 L0.621,66.051 C0.561,67.31 1.446,68.658 3.249,69.695 L38.427,89.294 C41.608,91.126 46.46,91.327 49.218,89.737 L123.683,46.584 C124.911,45.879 125.515,44.933 125.545,43.937 L125.545,0.198 C125.495,1.165 124.88,2.091 123.683,2.785" id="path-30"></path>
        <polyline id="path-32" points="0.962 8.18 23.283 21.294 44.467 9.086 13.55 0.974 0.962 8.18"></polyline>
        <linearGradient x1="-0.000229858637%" y1="50%" x2="99.9995403%" y2="50%" id="linearGradient-34">
            <stop stop-color="#C0C3D8" offset="0%"></stop>
            <stop stop-color="#A3A9C9" offset="100%"></stop>
        </linearGradient>
        <path d="M21.775,3.498 L21.775,0.936 L0.678,13.253 L0.678,15.825 C0.678,20.085 2.833,24.057 6.405,26.378 L11.279,29.519 L32.467,17.309 L27.549,14.136 C23.948,11.798 21.775,7.794 21.775,3.498" id="path-35"></path>
        <linearGradient x1="28.7174809%" y1="20.9040339%" x2="61.9695492%" y2="83.130882%" id="linearGradient-37">
            <stop stop-color="#FFFFFE" offset="0%"></stop>
            <stop stop-color="#A3A9C9" offset="100%"></stop>
        </linearGradient>
        <path d="M84.546,0.858 L3.677,47.042 C2.19,47.891 0.976,49.958 0.98,51.66 L1.105,117.965 C1.107,118.813 1.412,119.409 1.9,119.689 L4.591,121.235 C4.103,120.955 3.798,120.358 3.796,119.511 L3.671,53.207 C3.666,51.504 4.881,49.438 6.367,48.589 L87.236,2.404 C87.994,1.973 88.681,1.931 89.175,2.215 L86.485,0.669 C85.99,0.385 85.304,0.426 84.546,0.858" id="path-38"></path>
        <linearGradient x1="1.11756942e-05%" y1="49.9995698%" x2="99.9992063%" y2="49.9995698%" id="linearGradient-40">
            <stop stop-color="#C0C3D8" offset="0%"></stop>
            <stop stop-color="#A3A9C9" offset="100%"></stop>
        </linearGradient>
        <path d="M84.236,0.404 L3.368,46.589 C1.881,47.438 0.666,49.504 0.671,51.207 L0.796,117.511 C0.801,119.214 2.023,119.903 3.511,119.054 L84.379,72.87 C85.878,72.015 87.093,69.935 87.088,68.231 L86.963,1.927 C86.958,0.225 85.735,-0.451 84.236,0.404" id="path-41"></path>
        <linearGradient x1="-5.29639191%" y1="53.5015659%" x2="105.298012%" y2="46.4976559%" id="linearGradient-43">
            <stop stop-color="#FFFFFE" offset="0%"></stop>
            <stop stop-color="#A3A9C9" offset="100%"></stop>
        </linearGradient>
    </defs>
    <g id="Responsive-Copy" stroke="none" stroke-width="1" fill="none" fill-rule="evenodd">
        <g id="Group-14-Copy" transform="translate(3.000000, 0.000000)">
            <g id="Group-277">
                <g id="Group-111-Copy" transform="translate(0.000000, 92.000000)" fill-rule="nonzero">
                    <path d="M20.4854251,137.940005 L254.205549,8.82532901 C271.516279,-0.737686999 292.525766,-0.737686999 309.836496,8.82532901 L543.811621,138.080877 C554.239627,143.84165 558.023167,156.965248 552.262394,167.393254 C550.326364,170.897807 547.453184,173.79439 543.964452,175.758787 L310.932786,306.971691 C294.340539,316.31427 274.089052,316.378792 257.437612,307.142129 L20.4525796,175.684973 C10.0346154,169.90606 6.27392155,156.775897 12.0528348,146.357933 C14.0176221,142.815903 16.939981,139.898625 20.4854251,137.940005 Z" id="Path-6-Copy" fill="url(#linearGradient-1)"></path>
                    <path d="M0,150.257796 L3.55271368e-15,163.937885 C4.25500742e-15,169.672549 3.03581721,174.978691 7.97953743,177.884891 L221.554764,303.43655 C238.292671,313.276043 259.027764,313.358446 275.843347,303.652297 L492.328814,178.694382 C496.778973,176.125699 499.520501,171.377805 499.520501,166.239512 L499.520501,147.559411 L0,150.257796 Z" id="Path-7" fill="url(#linearGradient-2)"></path>
                    <path d="M11.7741178,128.272268 L221.944706,8.49163941 C239.657621,-1.60332201 261.390734,-1.56828255 279.071004,8.58374196 L487.574503,128.306606 C497.905897,134.2389 501.472072,147.423224 495.539778,157.754618 C493.65528,161.036569 490.940502,163.764973 487.668028,165.66588 L277.970161,287.474651 C260.998092,297.333344 240.050649,297.367314 223.046694,287.563718 L11.6807708,165.701123 C1.35985405,159.75062 -2.18306581,146.560027 3.76743784,136.239111 C5.68135717,132.919492 8.44499403,130.169606 11.7741178,128.272268 Z" id="Path-6" stroke="#FFFFFF" stroke-width="3.59519556" fill="#F5F6FD"></path>
                </g>
                <g id="Group-269" transform="translate(185.000000, 0.000000)">
                    <g id="Group-141" transform="translate(0.214286, 0.731051)">
                        <g id="Group-116-Copy" transform="translate(45.500000, 149.584352)" fill-rule="nonzero">
                            <g id="Group-45-Copy-3">
                                <polygon id="Path-8" fill="#CADEF1" points="17.7621539 4.23899812 34.8214286 12.5427873 34.3571429 39.4865526 0.464285714 23.2273839 0.464285714 13.007335"></polygon>
                                <g id="Group-18" transform="translate(34.357143, 8.361858)" fill="#97BAEA">
                                    <g id="Path-34">
                                        <polygon id="Mask" points="0 3.91589259 5.94470631 0.392971109 22.2857143 7.43276284 22.2857143 17.6528117 0 30.3951102"></polygon>
                                    </g>
                                </g>
                                <polygon id="Path-9" fill="#DFEBFD" points="0.0239322533 12.5427873 23.2142857 0 56.6428571 15.794621 34.5892857 29.2665037"></polygon>
                            </g>
                        </g>
                        <path d="M12.0617341,1.44726835 L140.734918,67.4441492 C143.835658,69.0345282 145.785714,72.2263159 145.785714,75.7111245 L145.785714,179.213978 C145.785714,180.440365 145.180684,181.587796 144.16872,182.280583 L136.964286,187.212714 L11.8421134,117.320621 C9.0902512,115.783456 7.30543438,112.955897 7.10151049,109.810418 L0.464285714,7.43276284 L4.09621324,3.07199072 C6.04408959,0.733220248 9.35349343,0.0582031916 12.0617341,1.44726835 Z" id="Rectangle-44-Copy-2" fill="url(#linearGradient-3)" fill-rule="nonzero"></path>
                        <g id="Group-45-Copy-3" transform="translate(59.428571, 130.073350)" fill-rule="nonzero">
                            <polygon id="Path-8" fill="#CADEF1" points="0 12.5427873 11.6071429 18.1173594 11.1428571 45.0611247 0 39.9511002"></polygon>
                            <g id="Group-18" transform="translate(11.142857, 4.645477)" fill="#97BAEA">
                                <g id="Path-34">
                                    <polygon id="Mask" points="0 13.2068461 22.2857143 0 22.2857143 26.9437653 0 39.6860637"></polygon>
                                </g>
                            </g>
                            <polygon id="Path-9" fill="#FFFFFF" points="0 12.5427873 23.1903535 0 33.4285714 4.64547677 11.375 18.1173594"></polygon>
                        </g>
                        <path d="M5.41244447,6.49244121 L133.306347,72.0896259 C136.407086,73.680005 138.357143,76.8717927 138.357143,80.3566013 L138.357143,184.381698 C138.357143,186.434199 136.693262,188.098079 134.640761,188.098079 C134.050914,188.098079 133.469538,187.95768 132.944698,187.688488 L5.05079591,122.091303 C1.9500564,120.500924 2.20312281e-15,117.309136 1.77635684e-15,113.824328 L8.8817842e-16,9.79923134 C6.36819568e-16,7.74673055 1.66388064,6.08284992 3.71638142,6.08284992 C4.30622911,6.08284992 4.88760531,6.22324955 5.41244447,6.49244121 Z" id="Rectangle-44" fill="#CADEF1" fill-rule="nonzero"></path>
                        <g id="Rectangle-44-Copy-3" transform="translate(9.285714, 18.581907)">
                            <mask id="mask-5" fill="white">
                                <use xlink:href="#path-4"></use>
                            </mask>
                            <use id="Mask" fill="#2A5794" fill-rule="nonzero" xlink:href="#path-4"></use>
                            <path d="M3.55530162,-2.37612944 L112.318785,53.4090031 C115.419524,54.9993821 117.369581,58.1911698 117.369581,61.6759784 L117.369581,149.691759 C117.369581,151.74426 115.7057,153.40814 113.653199,153.40814 C113.063352,153.40814 112.481975,153.267741 111.957136,152.998549 L3.19365305,97.2134165 C0.0929135382,95.6230375 -1.85714286,92.4312498 -1.85714286,88.9464412 L-1.85714286,0.930660692 C-1.85714286,-1.12184009 -0.193262221,-2.78572073 1.85923856,-2.78572073 C2.44908625,-2.78572073 3.03046245,-2.6453211 3.55530162,-2.37612944 Z" fill="#DF1243" fill-rule="nonzero" mask="url(#mask-5)"></path>
                        </g>
                    </g>
                    <polygon id="Rectangle-45-Copy-6" fill="#AD0029" fill-rule="nonzero" points="16.9285714 32.3202934 120 83.8850856 120 111.735896 16.9285714 60.1711043"></polygon>
                    <polygon id="Rectangle-45-Copy-7" fill="#AD0029" fill-rule="nonzero" points="16.9285714 65.7677262 46.6428571 81.1198493 46.6428571 108.97066 16.9285714 93.618537"></polygon>
                    <polygon id="Rectangle-45-Copy-10" fill="#790520" fill-rule="nonzero" points="16.9285714 101.07335 81.4642857 134.932842 81.4642857 147.06357 16.9285714 113.204077"></polygon>
                    <polygon id="Rectangle-45-Copy-11" fill="#790520" fill-rule="nonzero" points="83.7857143 135.449878 120 153.127522 120 158.085428 83.7857143 140.407783"></polygon>
                    <polygon id="Rectangle-45-Copy-12" fill="#790520" fill-rule="nonzero" points="83.7857143 143.811736 120 161.48938 120 166.447286 83.7857143 148.769642"></polygon>
                    <polygon id="Rectangle-45-Copy-8" fill="#AD0029" fill-rule="nonzero" points="49.4285714 82.4914425 82.8571429 99.7017564 82.8571429 127.552567 49.4285714 110.342253"></polygon>
                    <polygon id="Rectangle-45-Copy-9" fill="#F27B98" fill-rule="nonzero" points="86.5714286 101.07335 120 118.283663 120 146.134474 86.5714286 128.924161"></polygon>
                    <polygon id="Path-158-Copy" fill="#FFFFFF" fill-rule="nonzero" filter="url(#filter-6)" points="3 19.7775061 16 24.8875306 18.3214286 6.30562347 18.7857143 26.7457213 31.7857143 34.6430318 18.3214286 29.5330073 15.5357143 49.5085575 15.5357143 27.6748166"></polygon>
                    <g id="Group-105" transform="translate(39.857143, 139.775061) scale(-1, 1) translate(-39.857143, -139.775061) translate(9.857143, 78.775061)" fill-rule="nonzero">
                        <polygon id="Path-132" fill="#DFDCDC" points="38.0133929 29.0806846 40.6685268 23.7848411 34.4732143 19.3716381 29.1629464 15.8410758 20.3125 5.24938875 17.6573661 7.89731051 25.6227679 19.3716381 31.8180804 26.4327628"></polygon>
                        <path d="M7.921875,54.6772616 C7.1692542,55.4192423 6.28420955,56.0076693 5.26674107,56.4425428 C3.74053835,57.094853 2.40756622,57.0535218 1.7265625,57.3251834 C1.04555878,57.5968449 0.615572784,57.9824926 0.841517857,58.207824 C1.06746293,58.4331553 1.28404018,58.207824 2.61160714,58.207824 C3.93917411,58.207824 4.57425185,57.7474185 5.26674107,58.207824 C5.72840055,58.5147609 5.72840055,59.103188 5.26674107,59.9731051 C5.75288497,60.8267437 6.63792961,60.8267437 7.921875,59.9731051 C9.20582039,59.1194666 10.090865,57.9426125 10.5770089,56.4425428 L7.921875,54.6772616 Z" id="Path-135" fill="#D6AC8E"></path>
                        <path d="M30.0479911,61.7383863 C28.8910251,63.3493681 28.8910251,70.1162793 30.0479911,82.0391198 C31.204957,93.9619603 32.9750463,105.436288 35.3582589,116.462103 C35.6532738,117.638957 36.5383185,118.227384 38.0133929,118.227384 C39.4884673,118.227384 40.078497,117.344743 39.7834821,115.579462 L40.6685268,86.4523227 L45.09375,107.635697 C45.6837798,108.812551 46.5688244,109.400978 47.7488839,109.400978 C48.9289435,109.400978 49.5189732,108.518337 49.5189732,106.753056 C48.7825072,99.4946178 48.4874923,92.4334931 48.6339286,85.5696822 C48.853583,75.2739658 50.4040179,71.2659161 50.4040179,65.2689487 C50.4040179,61.2709704 49.8139881,57.4461945 48.6339286,53.794621 L30.0479911,60.8557457 L30.0479911,61.7383863 Z" id="Path-133" fill="#25326A"></path>
                        <path d="M30.8156261,29.0648575 L31.8305821,24.0220484 C29.8006702,23.3496739 28.7857143,22.3411121 28.7857143,20.996363 C28.7857143,18.9792394 29.9633688,17.5439397 31.8305821,15.9535539 C33.0753909,14.8932968 34.4286655,14.2209222 35.8904058,13.9364303 L37.9203176,18.9792394 L36.9053617,24.0220484 L36.9053617,29.0648575 C35.5520871,29.737232 34.5371312,30.0734193 33.8604939,30.0734193 C33.1838566,30.0734193 32.1689007,29.737232 30.8156261,29.0648575 Z" id="Path-130" fill="#D6AC8E"></path>
                        <path d="M7.921875,54.6772616 L9.69196429,57.3251834 C14.5490245,55.7313103 18.3842179,53.6718156 21.1975446,51.1466993 C24.0108714,48.6215829 26.0759755,45.3852341 27.3928571,41.4376528 L26.5078125,63.5036675 C32.7540585,65.4898652 37.7693115,65.7840787 41.5535714,64.3863081 C45.3378314,62.9885374 48.2879802,59.7521886 50.4040179,54.6772616 C48.6339286,53.5004075 47.453869,50.8524857 46.8638393,46.7334963 C45.9787946,40.5550122 46.2644433,32.3237773 45.09375,29.0806846 C44.3132878,26.9186228 42.2481836,25.4475551 38.8984375,24.6674817 L34.4732143,25.5501222 C30.9330357,26.1385493 28.5729167,27.3154034 27.3928571,29.0806846 C25.6227679,31.7286064 22.793944,39.3791443 18.5424107,44.9682152 C15.7080552,48.6942624 12.1678766,51.9306112 7.921875,54.6772616 Z" id="Path-131" fill="#FFFFFF"></path>
                        <path d="M20.3125,5.24938875 C19.569423,3.2738096 18.9793932,2.09695549 18.5424107,1.71882641 C17.886937,1.15163279 15.810077,1.92023903 15.0022321,1.71882641 C14.1943873,1.51741379 12.3470982,-0.0464547677 12.3470982,0.836185819 C12.3470982,1.42461288 12.937128,2.01303993 14.1171875,2.60146699 C15.2773906,3.02370856 15.9824707,3.31792209 16.2324279,3.48410758 C16.6073637,3.73338582 17.1318278,4.10880963 16.7723214,4.36674817 C16.5326505,4.53870719 15.9426208,4.34694889 15.0022321,3.79147326 C14.4122024,3.79147326 14.1171875,3.98323156 14.1171875,4.36674817 C14.1171875,4.75026477 14.4122024,5.0444783 15.0022321,5.24938875 C15.5922619,5.83781581 16.1822917,6.13202934 16.7723214,6.13202934 C17.3623512,6.13202934 18.2473958,6.42624287 19.4274554,7.01466993 L20.3125,5.24938875 Z" id="Path-136" fill="#D6AC8E"></path>
                        <path d="M35.7363704,17.6808199 C36.2943978,18.1174691 36.6327164,18.4536564 36.7513263,18.6893818 C36.9292412,19.0429698 37.0808894,19.0429698 36.7513263,19.6979436 C36.5316176,20.1345927 36.1932989,20.47078 35.7363704,20.7065054 C35.8409987,21.4828491 36.1793174,22.1552237 36.7513263,22.723629 C37.3233353,23.2920343 37.9999725,23.6282216 38.7812382,23.7321908 C39.6915658,23.4999727 40.368203,23.1637855 40.81115,22.723629 C41.254097,22.2834725 41.5924157,21.611098 41.826106,20.7065054 C43.4795209,21.4277127 44.4944768,22.1000872 44.8709737,22.723629 C45.4357192,23.6589416 45.8945094,23.3761103 44.8709737,25.7493144 C43.8474381,28.1225186 41.2017592,27.4101705 41.826106,30.5122379 C42.2423372,32.5802827 43.9339304,34.3545143 46.9008856,35.8349325 C49.8390674,37.6400283 51.5306606,38.9847774 51.9756652,39.8691798 C52.6431723,41.1957834 52.946407,41.930239 50.9607093,43.903427 C48.9750116,45.8766151 46.390949,45.5190804 45.8859297,45.9205507 C45.3809103,46.3220209 43.8632177,46.7316928 45.8859297,47.9376743 C47.9086416,49.1436557 48.8745496,49.5065232 51.9756652,48.9462361 C55.0767809,48.385949 55.3551699,48.3271149 57.0504449,45.9205507 C58.7457199,43.5139864 59.9373629,42.5509153 59.0803567,38.860618 C58.2233506,35.1703206 55.1846208,35.1524788 54.0055771,32.8092471 C52.8265334,30.4660154 51.9756652,28.7749999 52.9906212,26.7578762 C54.0055771,24.7407526 54.0055771,22.723629 51.9756652,20.7065054 C49.9457534,18.6893818 47.9158415,17.6808199 45.8859297,17.6808199 C44.5326551,17.6808199 43.5176992,17.6808199 42.8410619,17.6808199 C42.6950869,16.5425616 42.3567682,15.5339998 41.826106,14.6551345 C41.2954437,13.7762693 40.6188064,13.1038947 39.7961941,12.6380109 C37.6905198,11.8916492 36.3372452,11.8916492 35.7363704,12.6380109 C35.1354956,13.3843726 35.1354956,15.0653089 35.7363704,17.6808199 Z" id="Path-134" fill="#020F23"></path>
                        <path d="M36.2433036,116.462103 C34.6011025,116.581431 33.421043,116.581431 32.703125,116.462103 C31.626248,116.283111 31.8180804,115.579462 30.9330357,115.579462 C30.0479911,115.579462 29.4218009,115.687649 29.1629464,116.462103 C28.9903768,116.978405 29.2853917,117.566832 30.0479911,118.227384 L34.4732143,119.992665 C35.2526334,121.028379 36.1376781,121.616806 37.1283482,121.757946 C38.1190184,121.899086 39.2990779,121.604873 40.6685268,120.875306 C40.7890253,119.71088 40.7890253,118.82824 40.6685268,118.227384 C40.5480283,117.626528 40.2530134,117.038101 39.7834821,116.462103 L36.2433036,116.462103 Z" id="Path-137" fill="#0E1B40"></path>
                        <path d="M46.8638393,109.400978 L41.5535714,108.518337 C39.9758004,107.94295 39.0907558,107.94295 38.8984375,108.518337 C38.7061192,109.093725 39.296149,109.976366 40.6685268,111.166259 C42.9916709,111.66882 44.7617602,112.257247 45.9787946,112.93154 C47.8043463,113.942981 48.5328728,115.251655 49.5189732,115.579462 C50.1763735,115.798 50.7664032,115.503787 51.2890625,114.696822 C51.6882079,114.005163 51.6882079,113.062241 51.2890625,111.868058 C50.8899171,110.673874 50.2998874,109.851514 49.5189732,109.400978 L46.8638393,109.400978 Z" id="Path-138" fill="#0E1B40"></path>
                    </g>
                </g>
                <g id="Group-269-Copy" transform="translate(345.000000, 62.000000)">
                    <g id="Group-141" transform="translate(0.214286, 0.731051)">
                        <g id="Group-116-Copy" transform="translate(45.500000, 149.584352)" fill-rule="nonzero">
                            <g id="Group-45-Copy-3">
                                <polygon id="Path-8" fill="#CADEF1" points="17.7621539 4.23899812 34.8214286 12.5427873 34.3571429 39.4865526 0.464285714 23.2273839 0.464285714 13.007335"></polygon>
                                <g id="Group-18" transform="translate(34.357143, 8.361858)" fill="#97BAEA">
                                    <g id="Path-34">
                                        <polygon id="Mask" points="0 3.91589259 5.94470631 0.392971109 22.2857143 7.43276284 22.2857143 17.6528117 0 30.3951102"></polygon>
                                    </g>
                                </g>
                                <polygon id="Path-9" fill="#DFEBFD" points="0.0239322533 12.5427873 23.2142857 0 56.6428571 15.794621 34.5892857 29.2665037"></polygon>
                            </g>
                        </g>
                        <path d="M12.0617341,1.44726835 L140.734918,67.4441492 C143.835658,69.0345282 145.785714,72.2263159 145.785714,75.7111245 L145.785714,179.213978 C145.785714,180.440365 145.180684,181.587796 144.16872,182.280583 L136.964286,187.212714 L11.8421134,117.320621 C9.0902512,115.783456 7.30543438,112.955897 7.10151049,109.810418 L0.464285714,7.43276284 L4.09621324,3.07199072 C6.04408959,0.733220248 9.35349343,0.0582031916 12.0617341,1.44726835 Z" id="Rectangle-44-Copy-2" fill="url(#linearGradient-3)" fill-rule="nonzero"></path>
                        <g id="Group-45-Copy-3" transform="translate(59.428571, 130.073350)" fill-rule="nonzero">
                            <polygon id="Path-8" fill="#CADEF1" points="0 12.5427873 11.6071429 18.1173594 11.1428571 45.0611247 0 39.9511002"></polygon>
                            <g id="Group-18" transform="translate(11.142857, 4.645477)" fill="#97BAEA">
                                <g id="Path-34">
                                    <polygon id="Mask" points="0 13.2068461 22.2857143 0 22.2857143 26.9437653 0 39.6860637"></polygon>
                                </g>
                            </g>
                            <polygon id="Path-9" fill="#FFFFFF" points="0 12.5427873 23.1903535 0 33.4285714 4.64547677 11.375 18.1173594"></polygon>
                        </g>
                        <path d="M5.41244447,6.49244121 L133.306347,72.0896259 C136.407086,73.680005 138.357143,76.8717927 138.357143,80.3566013 L138.357143,184.381698 C138.357143,186.434199 136.693262,188.098079 134.640761,188.098079 C134.050914,188.098079 133.469538,187.95768 132.944698,187.688488 L5.05079591,122.091303 C1.9500564,120.500924 2.20312281e-15,117.309136 1.77635684e-15,113.824328 L8.8817842e-16,9.79923134 C6.36819568e-16,7.74673055 1.66388064,6.08284992 3.71638142,6.08284992 C4.30622911,6.08284992 4.88760531,6.22324955 5.41244447,6.49244121 Z" id="Rectangle-44" fill="#CADEF1" fill-rule="nonzero"></path>
                        <g id="Rectangle-44-Copy-3" transform="translate(9.285714, 18.581907)">
                            <mask id="mask-8" fill="white">
                                <use xlink:href="#path-7"></use>
                            </mask>
                            <use id="Mask" fill="#2A5794" fill-rule="nonzero" xlink:href="#path-7"></use>
                            <path d="M3.55530162,-2.37612944 L112.318785,53.4090031 C115.419524,54.9993821 117.369581,58.1911698 117.369581,61.6759784 L117.369581,149.691759 C117.369581,151.74426 115.7057,153.40814 113.653199,153.40814 C113.063352,153.40814 112.481975,153.267741 111.957136,152.998549 L3.19365305,97.2134165 C0.0929135382,95.6230375 -1.85714286,92.4312498 -1.85714286,88.9464412 L-1.85714286,0.930660692 C-1.85714286,-1.12184009 -0.193262221,-2.78572073 1.85923856,-2.78572073 C2.44908625,-2.78572073 3.03046245,-2.6453211 3.55530162,-2.37612944 Z" fill="#4577BB" fill-rule="nonzero" mask="url(#mask-8)"></path>
                        </g>
                    </g>
                    <polygon id="Rectangle-45-Copy-6" fill="#1E4880" fill-rule="nonzero" points="16.9285714 32.3202934 120 83.8850856 120 111.735896 16.9285714 60.1711043"></polygon>
                    <polygon id="Rectangle-45-Copy-7" fill="#2A5794" fill-rule="nonzero" points="16.9285714 65.7677262 46.6428571 81.1198493 46.6428571 108.97066 16.9285714 93.618537"></polygon>
                    <polygon id="Rectangle-45-Copy-10" fill="#2A5794" fill-rule="nonzero" points="16.9285714 101.07335 81.4642857 134.932842 81.4642857 147.06357 16.9285714 113.204077"></polygon>
                    <polygon id="Rectangle-45-Copy-11" fill="#2A5794" fill-rule="nonzero" points="83.7857143 135.449878 120 153.127522 120 158.085428 83.7857143 140.407783"></polygon>
                    <polygon id="Rectangle-45-Copy-12" fill="#2A5794" fill-rule="nonzero" points="83.7857143 143.811736 120 161.48938 120 166.447286 83.7857143 148.769642"></polygon>
                    <polygon id="Rectangle-45-Copy-8" fill="#2A5794" fill-rule="nonzero" points="49.4285714 82.4914425 82.8571429 99.7017564 82.8571429 127.552567 49.4285714 110.342253"></polygon>
                    <polygon id="Rectangle-45-Copy-9" fill="url(#linearGradient-9)" fill-rule="nonzero" points="86.5714286 101.07335 120 118.283663 120 146.134474 86.5714286 128.924161"></polygon>
                    <polygon id="Path-158-Copy" fill="#FFFFFF" fill-rule="nonzero" filter="url(#filter-10)" points="3 19.7775061 16 24.8875306 18.3214286 6.30562347 18.7857143 26.7457213 31.7857143 34.6430318 18.3214286 29.5330073 15.5357143 49.5085575 15.5357143 27.6748166"></polygon>
                </g>
                <g id="Group" transform="translate(408.500000, 224.500000) scale(-1, 1) translate(-408.500000, -224.500000) translate(387.000000, 173.000000)">
                    <path d="M23,50.224 L23.182,50.091 C23.278,50.029 23.349,50.002 23.407,50 L23.401,50.002 C23.258,50.068 23.124,50.146 23,50.224" id="Fill-1149-Copy" fill="#D8D9DA"></path>
                    <path d="M36.6884677,50.586 C36.6884677,50.586 36.9604677,51.455 36.8114677,52.144 C36.6624677,52.835 36.4974677,53.391 36.5694677,54.46 C36.6394677,55.53 35.6104677,56.405 36.1644677,57.377 C36.7594677,58.421 37.5194677,56.199 37.7734677,55.228 C38.0274677,54.257 38.3604677,56.915 38.4374677,57.221 C38.5164677,57.528 38.1364677,59.409 38.5074677,59.952 C38.8814677,60.496 39.7684677,60.401 40.0034677,59.657 C40.2364677,58.914 40.7734677,59.304 40.8284677,58.58 C40.8854677,57.855 41.3474677,57.155 41.5604677,56.615 C41.9494677,55.63 41.9194677,55.365 41.9014677,54.783 C41.8814677,54.202 41.7554677,52.194 41.2364677,51.532 C40.7134677,50.87 40.1604677,50.3 40.0574677,49.773 C39.9554677,49.247 39.4164677,48 39.4164677,48 L36.3024677,49.101 L36.6884677,50.586" id="Fill-1169-Copy" fill="#EFC59F"></path>
                    <path d="M25.5325022,14.8913936 C25.8025022,16.6413936 27.5535022,16.9093936 28.4965022,17.5833936 C29.4365022,18.2563936 31.5925022,20.4093936 28.3605022,21.4883936 C25.1285022,22.5643936 21.8975022,21.8913936 20.4165022,21.7573936 C18.9345022,21.6213936 18.5325022,19.8713936 19.6075022,19.3323936 C20.6855022,18.7953936 21.8025022,19.1093936 21.2645022,17.3593936 C20.7255022,15.6093936 19.8775022,14.4853936 19.0695022,14.0823936 C18.2625022,13.6783936 25.5325022,14.8913936 25.5325022,14.8913936" id="Fill-1170-Copy" fill="#EFC59F"></path>
                    <path d="M18.0473332,9.17536219 C18.1523332,8.52936219 18.6973332,7.88736219 18.8953332,7.25736219 C19.0023332,6.93236219 19.0223332,6.61836219 18.8343332,6.30436219 C18.9713332,5.71636219 19.3613332,4.77436219 19.5713332,4.15636219 L20.7133332,3.15236219 C31.9873332,1.41436219 27.2123332,15.1223622 27.8013332,14.9543622 C27.8113332,15.3543622 28.7273332,16.7633622 28.8323332,17.1083622 C27.9513332,17.0443622 22.3383332,18.4573622 21.4993332,18.9183622 C22.5273332,17.9353622 21.1733332,16.4963622 21.1833332,15.7853622 C20.1663332,15.7203622 19.0453332,15.4893622 19.0453332,15.4893622 C18.8343332,15.3743622 18.6773332,15.2493622 18.5723332,15.0913622 C18.2363332,14.6423622 18.3003332,14.0313622 18.3293332,13.3923622 C18.3293332,13.1203622 18.3293332,12.8473622 18.2893332,12.5643622 C18.1213332,11.5463622 17.9023332,10.3093622 18.0473332,9.17536219" id="Fill-1171-Copy" fill="#EFC59F"></path>
                    <path d="M21.2795456,0.9573409 L21.2945456,0.9253409 L21.3295456,0.9253409 C21.9025456,0.5803409 22.4675456,0.3523409 22.8745456,0.2873409 C23.0475456,0.2393409 23.2235456,0.1973409 23.4025456,0.1603409 C24.0735456,0.0553409 24.7335456,-0.0166591 25.1425456,0.00334090004 C26.9985456,0.1183409 28.8655456,0.6833409 30.3235456,1.9213409 C30.8875456,2.4023409 31.6645456,2.9593409 32.0225456,3.6423409 C32.2415456,4.0283409 32.7975456,6.1263409 32.7555456,6.5993409 C32.7125456,7.1963409 32.6405456,7.7843409 32.5255456,8.3503409 C32.3985456,8.8963409 32.2945456,9.5353409 32.0645456,10.0693409 L32.0525456,10.0593409 C31.2975456,11.1613409 30.2595456,12.1033409 29.3905456,13.1093409 L29.2005456,13.3213409 C28.6655456,13.9293409 27.6795456,15.2083409 27.5235456,15.2493409 C26.9345456,15.4173409 26.5905456,15.4703409 25.7615456,15.4823409 C25.3515456,15.4923409 21.1365456,13.9003409 21.4405456,12.6713409 C21.7445456,11.4413409 21.8925456,11.4123409 21.9855456,10.8863409 C22.0175456,10.6363409 22.0375456,10.4363409 22.0265456,10.3413409 C21.9115456,8.4233409 20.6325456,9.8503409 20.3915456,10.9183409 L20.3815456,10.9183409 C20.2975456,11.2663409 19.1845456,6.6673409 19.1545456,4.9803409 C19.1335456,4.1403409 18.1795456,2.6953409 21.2795456,0.9573409" id="Fill-1172-Copy" fill="#DF1243"></path>
                    <path d="M4.76796244,28.9223012 C4.76796244,28.9223012 4.58896244,28.0313012 4.81296244,27.3613012 C5.03596244,26.6923012 5.25896244,26.1563012 5.30396244,25.0863012 C5.34896244,24.0153012 6.46296244,23.2563012 6.01796244,22.2303012 C5.53896244,21.1283012 4.54496244,23.2563012 4.18796244,24.1933012 C3.83096244,25.1303012 3.78696244,22.4553012 3.74296244,22.1413012 C3.69796244,21.8303012 4.27796244,19.9993012 3.96496244,19.4203012 C3.65396244,18.8393012 2.76196244,18.8393012 2.44896244,19.5543012 C2.13596244,20.2673012 1.64596244,19.8223012 1.51096244,20.5353012 C1.37696244,21.2483012 0.843962439,21.8953012 0.574962439,22.4093012 C0.0829624392,23.3453012 0.0829624392,23.6143012 0.0379624392,24.1933012 C-0.0060375608,24.7733012 -0.0950375608,26.7803012 0.350962439,27.4953012 C0.797962439,28.2093012 1.28796244,28.8333012 1.33196244,29.3703012 C1.37696244,29.9043012 1.77996244,31.1983012 1.77996244,31.1983012 L4.99196244,30.4393012 L4.76796244,28.9223012" id="Fill-1173-Copy" fill="#EFC59F"></path>
                    <path d="M22.9752421,95.6570248 C22.9752421,95.6570248 23.9862421,100.910025 23.4812421,101.545025 C22.9752421,102.182025 22.5732421,102.581025 20.6532421,102.631025 C18.9322421,102.679025 15.7062421,101.227025 13.8892421,101.227025 C12.0692421,101.227025 11.6862421,101.246025 10.6772421,100.688025 C9.66624211,100.131025 8.45624211,99.4150248 9.26424211,98.2210248 C10.0712421,97.0300248 10.9792421,96.5510248 12.4942421,96.8710248 C14.0102421,97.1870248 16.0092421,97.2500248 16.6142421,96.4530248 C17.2202421,95.6570248 17.9282421,95.1800248 18.2302421,95.0210248 C18.5342421,94.8620248 22.9752421,95.6570248 22.9752421,95.6570248" id="Fill-1174-Copy" fill="#16356F"></path>
                    <path d="M38.7838308,92.2429657 L38.9478308,93.8569657 C38.9478308,93.8569657 40.1128308,97.9809657 39.5908308,98.6879657 C38.9848308,99.5119657 36.4608308,100.438966 34.6428308,98.6879657 C32.8248308,96.9389657 32.5908308,95.6649657 31.8828308,95.1089657 C31.1758308,94.5519657 29.5258308,92.6419657 30.1308308,91.9249657 C30.7378308,91.2079657 30.6698308,91.2079657 31.4778308,91.0499657 C32.2858308,90.8909657 34.3388308,91.1279657 34.9448308,91.5269657 C35.5498308,91.9249657 38.7838308,92.2429657 38.7838308,92.2429657" id="Fill-1175-Copy" fill="#16356F"></path>
                    <path d="M34.2979478,53.428 L34.2019478,70.943 C34.2019478,70.943 39.6919478,90.419 39.4129478,92.32 C39.1349478,94.221 36.5299478,97.294 33.6099478,94.47 C30.6929478,91.645 25.6799478,70.978 25.6799478,70.978 L25.0059478,59.398 L22.8059478,72.876 C22.8059478,72.876 23.3139478,95.511 23.2559478,96.942 C23.1989478,98.374 18.4089478,99.32 15.5139478,95.889 C13.8099478,93.866 14.0069478,60.42 14.0069478,60.42 L14.0999478,48 L34.7099478,48.19 L34.2979478,53.428" id="Fill-1176-Copy" fill="#091D3C"></path>
                    <path d="M28.7879846,16.9310375 C28.7879846,16.9310375 33.2309846,14.3720375 35.7889846,17.7390375 C38.3469846,21.1040375 40.6369846,34.3020375 41.0409846,37.1290375 C41.4439846,39.9560375 42.8729846,48.5830375 42.1989846,49.6600375 C41.5259846,50.7350375 39.5059846,53.6990375 36.9479846,51.5440375 C34.3889846,49.3900375 34.7119846,40.8980375 34.7119846,40.8980375 C34.7119846,40.8980375 38.5489846,51.6010375 36.5279846,52.8130375 C34.5099846,54.0240375 25.6619846,55.6640375 21.7369846,55.7020375 C17.4409846,55.7430375 15.7169846,54.0520375 14.8509846,53.6440375 C14.5959846,49.4690375 14.4709846,46.4680375 14.4709846,44.1780375 C14.4709846,41.8890375 14.1109846,40.0920375 14.1109846,39.2820375 C14.1109846,38.4750375 12.6309846,41.9750375 11.0129846,42.7830375 C9.39798464,43.5920375 6.30198464,46.1500375 4.95498464,43.1860375 C3.60898464,40.2240375 1.18498464,33.4920375 1.05098464,31.7420375 C0.915984637,29.9920375 0.915984637,28.2410375 2.80098464,28.2410375 C4.68698464,28.2410375 5.49398464,27.5680375 6.30298464,30.1260375 C7.10898464,32.6840375 8.45498464,36.3190375 8.45498464,36.3190375 C8.45498464,36.3190375 8.18598464,33.7600375 9.26398464,31.7420375 C10.3419846,29.7210375 12.2259846,26.3560375 13.9759846,24.6060375 C15.7259846,22.8560375 18.2849846,19.2200375 21.1119846,19.7590375 C23.9399846,20.2980375 24.2099846,21.9130375 26.4989846,21.6450375 C28.7879846,21.3740375 28.7879846,16.9310375 28.7879846,16.9310375" id="Fill-1177-Copy" fill="#F8CB5A"></path>
                </g>
                <g id="Group-2" transform="translate(234.000000, 190.000000)">
                    <path d="M28,52.44841 C28.357,54.11241 27.908,55.06841 28.604,56.72941 C29.298,58.39441 29.68,57.16541 29.68,57.16541 C30.067,58.20141 30.932,58.88341 31.044,57.78641 C31.27,58.52241 32.4,60.05741 31.984,55.54941 C31.565,51.04141 28.391,50.20441 28,52.44841" id="Fill-749-Copy" fill="#EFC3A1"></path>
                    <path d="M30.7154772,53.6987107 C31.3304772,54.8907107 32.0614772,55.7447107 32.3424772,55.5997107 C32.6274772,55.4537107 32.5174772,54.2627107 31.7404772,53.1687107 C30.9354772,52.0337107 30.3954772,51.1207107 30.1124772,51.2647107 C29.8284772,51.4127107 30.1014772,52.5057107 30.7154772,53.6987107" id="Fill-750-Copy" fill="#EFC3A1"></path>
                    <path d="M32.5593446,110.57426 C32.5593446,110.57426 30.0473446,108.86226 29.3283446,107.16926 C28.6083446,105.47926 28.2203446,104.59126 28.3103446,101.90226 C28.3863446,99.7512596 25.2673446,98.5902596 24.1063446,99.6442596 C23.8163446,99.9102596 24.2133446,101.03526 24.1953446,101.50426 C24.1063446,103.84826 24.5493446,105.04326 24.5493446,105.04326 L28.0903446,111.01726 L32.5593446,110.57426" id="Fill-751-Copy" fill="#EFC59F"></path>
                    <path d="M24.3300339,102.249722 C26.0350339,103.994722 26.5550339,106.474722 28.0680339,108.549722 C29.9790339,111.169722 32.0960339,109.877722 32.3840339,109.901722 C33.1760339,110.500722 33.7440339,110.839722 34.0750339,111.530722 C34.6740339,112.756722 32.4520339,113.186722 30.1620339,113.056722 C27.1590339,112.890722 26.1550339,112.260722 26.2300339,110.982722 C26.3060339,109.703722 25.2490339,107.399722 24.8020339,107.099722 C24.3580339,106.798722 24.5300339,111.195722 24.5300339,111.195722 L23.7160339,111.312722 C23.7160339,111.312722 23.4710339,107.514722 23.1220339,106.201722 C22.5930339,104.169722 23.9310339,102.641722 24.3300339,102.249722" id="Fill-752-Copy" fill="#951B29"></path>
                    <path d="M22.9391188,73.7877222 C22.3851188,71.3507222 21.8141188,68.9027222 20.9211188,66.5657222 L20.9421188,66.5217222 C19.7251188,63.2167222 20.0131188,59.6597222 20.0711188,56.1987222 C25.1521188,56.2377222 27.6831188,54.2497222 27.6831188,54.2497222 C32.0711188,58.8447222 30.7231188,70.8697222 30.1471188,75.9057222 C29.9541188,77.5777222 29.7661188,78.6347222 29.7661188,78.6347222 C27.9911188,79.7367222 26.0381188,80.3717222 24.1531188,80.7307222 C24.1511188,79.6027222 23.7781188,78.5137222 23.7021188,77.3917222 C23.6191188,76.1617222 23.2111188,74.9817222 22.9391188,73.7877222" id="Fill-753-Copy" fill="#2292C2"></path>
                    <path d="M28.907,82.9057222 C28.907,82.9057222 28.482,98.7977222 28.227,100.324722 C27.837,104.418722 23.552,100.376722 22.917,99.7917222 L22,83.9117222 L24.477,79.2707222 L29.594,77.2497222 L28.907,82.9057222" id="Fill-754-Copy" fill="#2292C2"></path>
                    <path d="M9.91652194,94.4827222 C9.91652194,94.4827222 6.78452194,96.6337222 6.65552194,98.5647222 C6.52552194,100.493722 7.12552194,102.249722 6.63152194,103.358722 C6.13252194,104.467722 2.95752194,99.1307222 4.35052194,95.5857222 C5.75152194,92.0407222 5.61752194,92.5497222 5.61752194,92.5497222 L9.00452194,90.2497222 L9.91652194,94.4827222" id="Fill-755-Copy" fill="#EFC59F"></path>
                    <path d="M5.171,97.1387222 C4.834,98.9237222 5.032,100.727722 6.602,101.861722 C6.834,102.031722 7.078,102.127722 7.313,102.168722 C7.551,103.568722 7.922,104.285722 7.699,105.174722 C7.377,106.460722 5.219,105.586722 3.518,104.157722 C1.82,102.727722 1.204,100.354722 2.059,99.4567222 C2.91,98.5537222 3.716,96.6017222 3.569,96.1057222 C3.425,95.6067222 0.675,99.5197222 0.675,99.5197222 L0,99.0977222 C0,99.0977222 2.324,95.5837222 2.883,94.3967222 C3.634,92.8047222 5.189,92.3697222 5.951,92.2497222 C6.356,93.7067222 5.425,95.8187222 5.171,97.1387222" id="Fill-756-Copy" fill="#951B29"></path>
                    <path d="M15.8541944,55.2497222 C17.5871944,55.6417222 19.1261944,55.7957222 20.4931944,55.8147222 C20.4381944,59.2477222 21.9801944,62.2767222 23.1581944,65.5607222 C23.1391944,65.5697222 23.1011944,70.4517222 23.6521944,72.8707222 C23.9471944,74.1677222 24.3891944,75.7937222 24.5151944,77.1217222 C24.6161944,78.1977222 24.5791944,79.2787222 24.5761944,80.3627222 C19.9901944,81.2187222 15.8541944,80.4027222 15.8541944,80.4027222 C15.8541944,80.4027222 12.8231944,73.7737222 12.0821944,65.6417222 C11.3411944,57.5057222 15.8541944,55.2497222 15.8541944,55.2497222" id="Fill-757-Copy" fill="#27AAE1"></path>
                    <path d="M23.7252834,75.2497222 C23.7252834,75.2497222 24.8022834,81.6757222 25.0332834,83.0897222 C25.2642834,84.5027222 20.2962834,88.8517222 13.1352834,93.1517222 C13.1352834,93.1517222 10.7892834,94.9367222 10.2962834,95.1177222 C6.48728339,92.9537222 8.56628339,89.7647222 8.56628339,89.7647222 L15.5812834,81.3447222 L23.7252834,75.2497222" id="Fill-758-Copy" fill="#27AAE1"></path>
                    <path d="M8.85676654,26.6260889 C8.85676654,26.6260889 14.6387665,19.5810889 25.8907665,23.3680889 C25.8907665,23.3680889 28.6257665,28.3090889 27.9917665,37.8790889 C27.3607665,47.4480889 30.2037665,51.0220889 30.2037665,51.0220889 L28.4157665,52.5990889 C28.4157665,52.5990889 33.1467665,63.1140889 24.4187665,65.9540889 C15.6907665,68.7910889 9.69476654,61.6660889 9.27576654,59.4590889 C8.85676654,57.2510889 8.98876654,52.9440889 10.2227665,50.2870889 C15.9257665,37.9880889 4.96476654,32.6200889 8.85676654,26.6260889" id="Fill-759-Copy" fill="#F7893F"></path>
                    <path d="M28.525,52.4807222 C28.525,52.4807222 25.635,47.4917222 26.16,41.7087222 C26.258,40.6287222 26.254,39.8577222 26.328,38.7337222 C26.423,37.3177222 27.684,35.2327222 27.72,33.8787222 C27.762,32.3437222 26.752,31.1407222 26.686,29.8887222 C26.61,28.4357222 26,23.2497222 26,23.2497222 C26,23.2497222 29.23,28.9287222 28.305,35.7607222 C27.378,42.5937222 30.313,50.9037222 30.313,50.9037222 C30.313,50.9037222 29.995,52.5847222 28.525,52.4807222" id="Fill-760-Copy" fill="#CE6823"></path>
                    <path d="M23.248,6.24972221 C25.404,10.2537222 24.02,12.6997222 24.056,15.7877222 C24.074,17.4227222 23.486,18.6887222 23.024,19.5897222 C22.361,20.8767222 21.661,21.4597222 20.849,21.6237222 C19.298,21.9357222 13.277,18.5767222 13.017,16.4737222 L12,8.33172221 L23.248,6.24972221" id="Fill-761-Copy" fill="#EFC59F"></path>
                    <path d="M21.5415365,24.1867222 C21.4245365,23.9287222 21.2875365,23.6857222 21.1465365,23.4517222 C20.7715365,21.6857222 21.2985365,21.4357222 21.2985365,20.8177222 C21.2985365,18.3517222 20.2075365,17.2497222 18.7975365,17.2497222 C17.9405365,17.2497222 16.6695365,18.4307222 16.0985365,19.9207222 C15.7305365,20.8777222 16.5395365,22.2237222 16.1625365,22.9427222 C15.9905365,23.2697222 15.8465365,24.3517222 16.9175365,26.3387222 C18.0865365,28.5087222 20.0245365,31.7927222 21.3005365,31.1997222 C22.5775365,30.6017222 22.5815365,26.4197222 21.5415365,24.1867222" id="Fill-762-Copy" fill="#EFC59F"></path>
                    <path d="M16.3861178,3.21946613 C16.3861178,3.21946613 14.6661178,-0.208533868 10.2041178,0.301466132 C5.7411178,0.798466132 5.1191178,6.59046613 6.9931178,10.9404661 C8.8731178,15.2854661 7.4241178,18.4094661 7.4241178,18.4094661 C7.4241178,18.4094661 12.5911178,13.4714661 12.2961178,10.9404661 C12.0051178,8.40646613 13.5561178,3.83246613 16.3861178,3.21946613" id="Fill-763-Copy" fill="#272626"></path>
                    <path d="M13.8570552,3.69584435 C16.2360552,2.94384435 23.3360552,2.36184435 24.2970552,8.80684435 C22.0400552,6.88784435 20.9840552,8.50484435 18.9890552,8.78884435 C18.5670552,8.84984435 18.2950552,9.05084435 18.1410552,9.31384435 C17.1000552,9.95584435 15.7160552,11.2528444 15.6410552,11.8828444 C15.5070552,13.0998444 15.4960552,14.0888444 15.5300552,14.8558444 C15.5300552,14.8558444 14.3170552,13.6368444 13.9770552,13.5658444 C13.2070552,13.3998444 14.3220552,18.7918444 14.3220552,18.7918444 C14.3220552,18.7918444 11.0420552,16.0288444 10.2820552,12.2378444 C9.84705521,10.0568444 9.29705521,5.13384435 13.8570552,3.69584435" id="Fill-764-Copy" fill="#272626"></path>
                    <path d="M13.5081363,57.3333509 C14.3901363,58.8523509 15.3701363,59.6833509 17.1041363,60.3523509 C18.8411363,61.0233509 17.8581363,58.5643509 17.8581363,58.5643509 C19.2781363,59.8113509 20.4981363,59.3823509 19.8091363,58.2043509 C19.4391363,57.7373509 20.4461363,58.5283509 16.9111363,54.8313509 C13.3761363,51.1383509 12.2251363,54.7263509 13.5081363,57.3333509" id="Fill-765-Copy" fill="#EFC59F"></path>
                    <path d="M16.6703371,55.0469774 C17.7463371,55.5699774 18.7693371,55.7069774 18.9413371,55.3499774 C19.1143371,54.9909774 18.3773371,54.2709774 17.2963371,53.7479774 C16.2203371,53.2259774 15.1983371,53.0929774 15.0253371,53.4499774 C14.8513371,53.8079774 15.5923371,54.5239774 16.6703371,55.0469774" id="Fill-766-Copy" fill="#EFC59F"></path>
                    <path d="M10.7609105,25.5343386 C10.7609105,25.5343386 0.52691045,33.9603386 3.56291045,46.7343386 C4.75991045,50.4363386 6.61691045,52.5253386 11.5589105,56.2053386 C11.5589105,56.2053386 13.0279105,56.9423386 14.7109105,54.9413386 C16.3929105,52.9433386 14.7109105,51.6813386 14.7109105,51.6813386 C14.7109105,51.6813386 9.20791045,46.9783386 9.73291045,41.8263386 C10.2599105,36.6743386 13.9759105,35.4893386 14.4979105,32.6483386 C15.0269105,29.8103386 14.5939105,23.8863386 10.7609105,25.5343386" id="Fill-767-Copy" fill="#CE6823"></path>
                </g>
                <g id="Group-74" transform="translate(139.000000, 200.000000)" fill="#48658D" fill-rule="nonzero" opacity="0.255691964">
                    <ellipse id="Oval-12" cx="76.3475342" cy="74.0122628" rx="3.43134985" ry="2.13908274"></ellipse>
                    <ellipse id="Oval-12-Copy" cx="48.0388979" cy="58.6108671" rx="3.43134985" ry="2.13908274"></ellipse>
                    <ellipse id="Oval-12-Copy-2" cx="26.5929613" cy="44.9207375" rx="3.43134985" ry="2.13908274"></ellipse>
                    <ellipse id="Oval-12-Copy-3" cx="3.43134985" cy="30.3749749" rx="3.43134985" ry="2.13908274"></ellipse>
                    <ellipse id="Oval-12" cx="124.386432" cy="45.7763706" rx="3.43134985" ry="2.13908274"></ellipse>
                    <ellipse id="Oval-12-Copy" cx="96.0777958" cy="30.3749749" rx="3.43134985" ry="2.13908274"></ellipse>
                    <ellipse id="Oval-12-Copy-2" cx="74.6318592" cy="16.6848454" rx="3.43134985" ry="2.13908274"></ellipse>
                    <ellipse id="Oval-12-Copy-3" cx="51.4702477" cy="2.13908274" rx="3.43134985" ry="2.13908274"></ellipse>
                    <ellipse id="Oval-12" cx="98.6513082" cy="57.755234" rx="3.43134985" ry="2.13908274"></ellipse>
                    <ellipse id="Oval-12-Copy" cx="70.3426719" cy="42.3538382" rx="3.43134985" ry="2.13908274"></ellipse>
                    <ellipse id="Oval-12-Copy-2" cx="48.8967354" cy="28.6637087" rx="3.43134985" ry="2.13908274"></ellipse>
                    <ellipse id="Oval-12-Copy-3" cx="25.7351239" cy="14.1179461" rx="3.43134985" ry="2.13908274"></ellipse>
                </g>
                <ellipse id="Oval-57" fill="url(#linearGradient-11)" fill-rule="nonzero" cx="103.5" cy="163.5" rx="54.5" ry="11.5"></ellipse>
                <g id="Group-273" transform="translate(77.213622, 157.879404) rotate(-99.000000) translate(-77.213622, -157.879404) translate(20.213622, 141.379404)" fill-rule="nonzero">
                    <rect id="Rectangle-58" fill="#25326A" transform="translate(57.000000, 16.500000) rotate(-270.000000) translate(-57.000000, -16.500000) " x="41" y="-40" width="32" height="113" rx="3"></rect>
                    <g id="Group-272" transform="translate(9.000000, 6.000000)">
                        <circle id="Oval-58" fill="#FFFFFF" cx="84" cy="10" r="10"></circle>
                        <rect id="Rectangle-59" fill="#8E97B6" x="0" y="2" width="66" height="3" rx="1.5"></rect>
                        <rect id="Rectangle-59-Copy" fill="#8E97B6" x="0" y="9" width="66" height="3" rx="1.5"></rect>
                        <rect id="Rectangle-59-Copy-2" fill="#8E97B6" x="0" y="16" width="66" height="3" rx="1.5"></rect>
                    </g>
                </g>
                <g id="Group-273-Copy-2" transform="translate(133.616120, 172.751410) scale(-1, 1) rotate(-120.000000) translate(-133.616120, -172.751410) translate(76.616120, 156.251410)" fill-rule="nonzero">
                    <rect id="Rectangle-58" fill="#121C46" transform="translate(57.000000, 16.500000) rotate(-270.000000) translate(-57.000000, -16.500000) " x="41" y="-40" width="32" height="113" rx="3"></rect>
                    <g id="Group-272" transform="translate(9.000000, 6.000000)">
                        <circle id="Oval-58" fill="#FFFFFF" cx="84" cy="10" r="10"></circle>
                        <rect id="Rectangle-59" fill="#8E97B6" x="0" y="2" width="66" height="3" rx="1.5"></rect>
                        <rect id="Rectangle-59-Copy" fill="#8E97B6" x="0" y="9" width="66" height="3" rx="1.5"></rect>
                        <rect id="Rectangle-59-Copy-2" fill="#8E97B6" x="0" y="16" width="66" height="3" rx="1.5"></rect>
                    </g>
                </g>
                <g id="Group-274" transform="translate(113.158441, 158.266433) rotate(-71.000000) translate(-113.158441, -158.266433) translate(56.158441, 141.766433)" fill-rule="nonzero">
                    <g id="Group-273-Copy">
                        <rect id="Rectangle-58" fill="#25326A" transform="translate(57.000000, 16.500000) rotate(-270.000000) translate(-57.000000, -16.500000) " x="41" y="-40" width="32" height="113" rx="3"></rect>
                        <g id="Group-272" transform="translate(9.000000, 8.000000)" fill="#8E97B6">
                            <rect id="Rectangle-59" x="0" y="0" width="66" height="3" rx="1.5"></rect>
                            <rect id="Rectangle-59-Copy" x="0" y="7" width="15" height="3" rx="1.5"></rect>
                            <rect id="Rectangle-59-Copy-3" x="20" y="7" width="15" height="3" rx="1.5"></rect>
                            <rect id="Rectangle-59-Copy-4" x="38" y="7" width="6" height="3" rx="1.5"></rect>
                            <rect id="Rectangle-59-Copy-5" x="48" y="7" width="6" height="3" rx="1.5"></rect>
                            <rect id="Rectangle-59-Copy-6" x="59" y="7" width="6" height="3" rx="1.5"></rect>
                            <rect id="Rectangle-59-Copy-2" x="0" y="14" width="24" height="3" rx="1.5"></rect>
                            <rect id="Rectangle-59-Copy-7" x="27" y="14" width="38" height="3" rx="1.5"></rect>
                        </g>
                    </g>
                    <rect id="Rectangle-60" fill="#FFFFFF" x="82" y="4" width="26" height="23"></rect>
                    <polygon id="Path-271" fill="#D3D6E1" points="84 25.5 95 25.5 89.5 15"></polygon>
                    <circle id="Oval-59" fill="#FFD75D" cx="97" cy="15" r="5"></circle>
                    <polygon id="Path-271-Copy" fill="#D3D6E1" points="95 25.5 106 25.5 100.5 8"></polygon>
                </g>
                <g id="Group-274-Copy" transform="translate(74.158441, 163.266433) rotate(58.000000) translate(-74.158441, -163.266433) translate(17.158441, 146.766433)" fill-rule="nonzero">
                    <g id="Group-273-Copy">
                        <g id="Group-275">
                            <rect id="Rectangle-58" fill="#F7893F" transform="translate(57.000000, 16.500000) rotate(-270.000000) translate(-57.000000, -16.500000) " x="41" y="-40" width="32" height="113" rx="3"></rect>
                            <rect id="Rectangle-59" fill="#F8C09B" x="9" y="8" width="66" height="3" rx="1.5"></rect>
                            <rect id="Rectangle-59-Copy" fill="#F8C09B" x="9" y="15" width="15" height="3" rx="1.5"></rect>
                            <rect id="Rectangle-59-Copy-3" fill="#F8C09B" x="29" y="15" width="15" height="3" rx="1.5"></rect>
                            <rect id="Rectangle-59-Copy-4" fill="#F8C09B" x="47" y="15" width="6" height="3" rx="1.5"></rect>
                            <rect id="Rectangle-59-Copy-5" fill="#F8C09B" x="57" y="15" width="6" height="3" rx="1.5"></rect>
                            <rect id="Rectangle-59-Copy-6" fill="#F8C09B" x="68" y="15" width="6" height="3" rx="1.5"></rect>
                            <rect id="Rectangle-59-Copy-2" fill="#F8C09B" x="9" y="22" width="24" height="3" rx="1.5"></rect>
                            <rect id="Rectangle-59-Copy-7" fill="#F8C09B" x="36" y="22" width="38" height="3" rx="1.5"></rect>
                        </g>
                    </g>
                    <rect id="Rectangle-60" fill="#FFFFFF" x="82" y="4" width="26" height="23"></rect>
                    <polygon id="Path-271" fill="#D3D6E1" points="84 25.5 95 25.5 89.5 15"></polygon>
                    <circle id="Oval-59" fill="#FFD75D" cx="97" cy="15" r="5"></circle>
                    <polygon id="Path-271-Copy" fill="#D3D6E1" points="95 25.5 106 25.5 100.5 8"></polygon>
                </g>
                <g id="Group-276" transform="translate(91.000000, 92.000000)" fill-rule="nonzero">
                    <path d="M11,117 C17.0751322,117 22,43.0751322 22,37 C22,30.9248678 17.0751322,26 11,26 C4.92486775,26 0,30.9248678 0,37 C0,43.0751322 4.92486775,117 11,117 Z" id="Oval-60" fill="#795D44"></path>
                    <ellipse id="Oval-62-Copy" fill="#E7E9EF" cx="11.5" cy="32" rx="9.5" ry="5"></ellipse>
                    <ellipse id="Oval-62" fill="#5B442F" cx="11" cy="31" rx="7" ry="3"></ellipse>
                    <path d="M11,31 C17.0751322,31 22,26.0751322 22,20 C22,17.135986 20,10 14.5039411,3.76381771 C12.4167297,1.39553327 10.7487494,0.140927367 9.5,0 C11.0730691,1.57131796 11.8596037,2.76673368 11.8596037,3.58624714 C11.8596037,5 11.8596037,9 8,9 C5,9 0,13.9248678 0,20 C0,26.0751322 4.92486775,31 11,31 Z" id="Oval-61" fill="#4577BB"></path>
                    <path d="M10,29 C9.33333333,29.6666667 7.33333333,27.3333333 4,22 C8.66666667,26 10.6666667,28.3333333 10,29 Z" id="Path-270" fill="#8EB5EB" filter="url(#filter-12)"></path>
                    <path d="M18,29 C17.3333333,29.6666667 15.3333333,27.3333333 12,22 C16.6666667,26 18.6666667,28.3333333 18,29 Z" id="Path-270-Copy-2" fill="#8EB5EB" filter="url(#filter-13)" transform="translate(15.062500, 25.555556) scale(-1, 1) translate(-15.062500, -25.555556) "></path>
                    <path d="M14,26 C13.3333333,26.6666667 11.3333333,24.3333333 8,19 C12.6666667,23 14.6666667,25.3333333 14,26 Z" id="Path-270-Copy-3" fill="#8EB5EB" filter="url(#filter-14)" transform="translate(11.062500, 22.555556) scale(-1, 1) rotate(43.000000) translate(-11.062500, -22.555556) "></path>
                </g>
                <path d="M49.0506215,163 C49.041246,163.046213 49.0331639,163.092496 49.0263826,163.138849 L49,163 L49.0506215,163 Z M158.025009,163 L159,163 L136.815126,253 C133.733894,257.333333 122.795518,259.5 104,259.5 C85.2044818,259.5 72.5714286,257.333333 66.1008403,253 L49.3405768,164.792421 C52.3865083,170.535306 75.4894997,175 103.537815,175 C133.658219,175 158.07563,169.851275 158.07563,163.5 C158.07563,163.332473 158.058642,163.165782 158.025009,163 Z" id="Combined-Shape" fill="#F8CB5A" fill-rule="nonzero"></path>
                <g id="Group-271" transform="translate(104.000000, 245.000000)" fill-rule="nonzero">
                    <polygon id="Path-269" fill="url(#linearGradient-15)" points="8.41791045 47.7619048 34.0223881 59 46.6492537 53.3809524 19.2910448 44.25"></polygon>
                    <g id="Group-270">
                        <polygon id="Path-268-Copy" fill="#25326A" points="20.659559 17.5595238 14.466037 10.8869048 32.9701493 0 41.3046323 1.4047619 37.1756176 37.577381 28.0597015 41.0892857 25.5013508 35.8493913 19.3692419 45.6547619 9.82089552 48.4642857 9.82089552 31.9583333"></polygon>
                        <polygon id="Path-268" fill="#F7893F" points="10.8386635 17.5595238 4.64514149 10.8869048 31.4837368 1.4047619 27.3547221 37.577381 19.870883 29.1488095 9.5483464 45.6547619 0 31.9583333"></polygon>
                    </g>
                </g>
            </g>
            <g id="Group-260" transform="translate(186.000000, 188.000000)">
                <g id="Group-259" transform="translate(0.000000, 15.000000)">
                    <path d="M24.8949671,106.289244 C24.2523611,105.308902 23.6822399,103.976317 23.1532399,102.560976 L18.3253308,102.66778 C18.1615429,105.185829 17.630452,106.054415 17.4757247,106.852976 C17.2004217,108.269732 18.0876641,108.959366 18.7511792,109.172976 C21.3871186,110.022463 23.8355732,112.009317 25.9480883,112.47261 C27.2179671,112.752 29.1722702,113.020073 30.210755,112.433707 C30.6972399,112.157854 31.0053005,111.63161 30.7481186,110.840829 C30.234452,109.260683 26.4192399,108.611366 24.8949671,106.289244" id="Fill-326" fill="#091D3C"></path>
                    <g id="Group-329" transform="translate(13.939394, 51.634146)">
                        <mask id="mask-17" fill="white">
                            <use xlink:href="#path-16"></use>
                        </mask>
                        <g id="Clip-328"></g>
                        <path d="M0.606363636,2.36526829 C-1.035,6.14517073 3.54409091,15.8771463 3.76293939,25.1246098 C3.82148485,27.5676829 11.2058788,29.9018293 11.9307273,23.1568537 C12.7092424,15.9110976 12.3398485,0.0148536585 12.3398485,0.0148536585 L0.606363636,2.36526829" id="Fill-327" fill="#25326A" mask="url(#mask-17)"></path>
                    </g>
                    <g id="Group-332" transform="translate(17.424242, 70.731707)">
                        <mask id="mask-19" fill="white">
                            <use xlink:href="#path-18"></use>
                        </mask>
                        <g id="Clip-331"></g>
                        <path d="M0.441878788,1.09139024 C0.075969697,1.90621951 0.439787879,32.5726585 0.439787879,32.5726585 C2.01981818,33.9363659 5.23354545,34.0544878 6.83239394,32.8463902 C7.63181818,32.2416341 8.96024242,3.5875122 8.62569697,1.85104878 C8.29115152,0.116 0.856575758,0.166219512 0.441878788,1.09139024" id="Fill-330" fill="#25326A" mask="url(#mask-19)"></path>
                    </g>
                    <path d="M24.0419697,29.7073171 L17.4242424,30.1225122 L18.6871515,38.4730976 C18.9770909,40.5412927 20.9676364,41.583878 22.7797576,41.3653171 C24.5925758,41.1460488 25.2630606,40.0567805 24.8790303,38.0182927 C24.5354242,36.1927073 24.0419697,29.7073171 24.0419697,29.7073171" id="Fill-333" fill="#F5C9C3"></path>
                    <path d="M34.453155,60.0800888 C34.1193066,59.4795766 32.1970641,56.3801132 31.6673672,54.9874059 C31.1355793,53.5847961 28.5323975,55.3622839 28.5763066,56.085162 C28.6195187,56.8094547 29.0767308,61.3277961 30.9766702,62.0542108 C31.5467914,62.2720644 33.0104278,61.4176254 33.8363369,61.7337961 C34.039155,61.811601 36.845852,64.7858693 37.1873672,64.4286742 C37.2912157,64.321162 37.4069126,64.1004791 36.9963975,63.5699913 C36.5761247,63.0281864 34.7877005,60.680601 34.453155,60.0800888" id="Fill-334" fill="#D6AC8E"></path>
                    <path d="M25.1693412,39.2037487 C24.2597958,36.4374316 23.15022,36.6057731 21.6740382,37.0039926 C20.2591897,37.3852365 18.4066442,37.7197975 18.8994018,39.6281389 C20.090523,44.237017 26.7424018,52.8818463 28.8472503,56.5563585 C29.8237048,58.2631146 33.5274018,58.607578 31.4420685,54.3396267 C29.704523,50.7860658 26.393917,42.9284804 25.1693412,39.2037487" id="Fill-335" fill="#D6AC8E"></path>
                    <g id="Group-338" transform="translate(14.636364, 18.390244)">
                        <mask id="mask-21" fill="white">
                            <use xlink:href="#path-20"></use>
                        </mask>
                        <g id="Clip-337"></g>
                        <path d="M4.53448485,0.302731707 C1.98706061,0.641536585 0.191666667,3.01317073 0.526212121,5.59770732 L1.53960606,13.4354878 C2.18221212,16.298 10.6991818,15.3494878 10.8274242,12.6779512 L9.75339394,4.36980488 C9.41884848,1.78314634 7.08260606,-0.0374878049 4.53448485,0.302731707" id="Fill-336" fill="#F8CB5A" mask="url(#mask-21)"></path>
                    </g>
                    <path d="M7.56353333,108.461415 C7.18647272,107.348098 6.96692727,105.911537 6.80941212,104.406366 L2.11113939,103.268293 C1.3242606,105.662561 0.593836358,106.367049 0.24465454,107.099122 C-0.37564849,108.399171 0.310169692,109.293927 0.899109085,109.671634 C3.23744242,111.171146 5.11019999,113.721732 7.03801818,114.714805 C8.19638181,115.310366 10.0203515,116.072854 11.1717454,115.771537 C11.7112,115.63078 12.1398364,115.200024 12.0882606,114.368927 C11.986503,112.708854 8.45774545,111.099707 7.56353333,108.461415" id="Fill-339" fill="#091D3C"></path>
                    <g id="Group-342" transform="translate(4.181818, 55.170732)">
                        <mask id="mask-23" fill="white">
                            <use xlink:href="#path-22"></use>
                        </mask>
                        <g id="Clip-341"></g>
                        <path d="M0.986212121,21.8879268 C0.869121212,24.328878 9.51154545,28.6024878 10.7138182,21.9275366 C12.006,14.758878 13.4333939,0.437121951 13.4333939,0.437121951 L1.23642424,0.413780488 C-0.665606061,4.06353659 1.42809091,12.6482439 0.986212121,21.8879268" id="Fill-340" fill="#25326A" mask="url(#mask-23)"></path>
                    </g>
                    <g id="Group-345" transform="translate(2.787879, 16.268293)">
                        <mask id="mask-25" fill="white">
                            <use xlink:href="#path-24"></use>
                        </mask>
                        <g id="Clip-344"></g>
                        <path d="M8.78460606,1.08926829 C5.28790909,2.21814634 1.64833333,4.70082927 0.951363636,9.84302439 C0.169363636,15.6189756 0.971575758,36.424 1.06078788,42.4864146 C1.07612121,43.5042439 1.80793939,44.3516098 2.783,44.4909512 C10.0335758,45.5292927 21.7712424,41.8385122 23.9764545,36.9714634 C24.127697,36.6376098 24.1876364,36.2733415 24.1548788,35.9069512 C23.8321818,32.2932683 21.7384848,8.91502439 21.5112727,8.19921951 C19.9430909,3.248 14.9297879,-0.89404878 8.78460606,1.08926829" id="Fill-343" fill="#E9BD4E" mask="url(#mask-25)"></path>
                    </g>
                    <g id="Group-348" transform="translate(0.696970, 74.268293)">
                        <mask id="mask-27" fill="white">
                            <use xlink:href="#path-26"></use>
                        </mask>
                        <g id="Clip-347"></g>
                        <path d="M0.287848485,29.9937805 C0.876090909,31.5951463 4.28845455,32.6257073 6.17793939,31.8752439 C7.1230303,31.4996585 14.1470909,4.2545122 14.2509394,2.48763415 C14.3554848,0.722170732 5.93887879,-0.393268293 5.33669697,0.426512195 C3.38518182,3.07895122 0.287848485,29.9937805 0.287848485,29.9937805 Z" id="Fill-346" fill="#25326A" mask="url(#mask-27)"></path>
                    </g>
                    <path d="M16.0658619,17.6395098 C15.8721043,17.5539244 15.6755589,17.4768268 15.4755286,17.4060951 C15.3486801,17.3594122 15.2301953,17.3162658 15.1012559,17.2773634 C14.8503468,17.2030951 14.5959528,17.1366073 14.3527104,17.0941683 C13.8906195,16.9993878 13.4348013,16.9640219 13.0096498,16.9788756 C11.1334074,17.0793146 10.5869831,18.3496561 11.7906498,19.8138024 C12.9943165,21.2779488 15.4929528,22.3834854 17.3691953,22.2830463 L17.5009225,22.2674854 C18.020165,22.2299976 18.4244074,22.0949 18.7115589,21.8904854 C18.9743165,21.6931439 19.1429831,21.4455829 19.1980437,21.1470951 C19.2203468,21.0466561 19.2308013,20.9497537 19.2231346,20.8450707 C19.2029225,20.4298756 18.9994074,19.9531439 18.5874983,19.4481195 C17.9888013,18.7217049 17.0688013,18.0837049 16.0658619,17.6395098" id="Fill-349" fill="#D6AC8E"></path>
                    <path d="M11.8571473,17.6546341 C11.5713898,19.5544878 18.4504807,21.0801707 18.4504807,19.1569756 C18.4504807,15.6479756 22.0572988,10.0149024 22.0572988,10.0149024 L14.8102079,7.7804878 C14.8102079,7.7804878 12.6042988,12.6942195 11.8571473,17.6546341" id="Fill-350" fill="#D6AC8E"></path>
                    <path d="M20.7006736,1.79863077 C18.5247342,1.30704541 15.101916,0.49646004 13.1768857,5.18385028 C12.9838251,5.65350882 12.9531584,5.84589906 12.7998251,6.44428931 C12.5224312,7.90065516 12.4513402,9.29972833 12.6897039,10.7454844 C12.8527948,11.7633137 14.8914312,11.4655332 15.9633706,11.7519966 L16.067916,11.7845332 C15.9347948,12.2895576 15.8936736,12.779021 15.9250372,13.2635332 C15.953613,13.8470698 16.0944009,14.4100942 16.3034918,14.9228991 C16.8987039,16.3877527 18.068916,17.4939966 19.0683706,17.8462405 L19.3213706,17.9148503 L20.0427342,18.101582 L20.460219,18.2126308 C21.7767948,18.5379966 22.714219,17.1778259 23.0006736,16.0729966 C23.0006736,16.0729966 23.358916,14.1667771 23.4655524,13.7239966 L24.1276736,13.6949966 C24.5611887,13.6942893 24.8922493,13.2939478 24.8281281,12.8617771 L24.439219,10.2043869 C24.439219,10.2043869 24.6852493,9.88609419 24.9180372,9.49141126 C25.1682493,8.12487467 25.1257342,6.93728931 24.8636736,5.92370394 C24.2810069,3.68221614 22.6215221,2.31921614 20.7006736,1.79863077" id="Fill-351" fill="#D6AC8E"></path>
                    <path d="M19.7699499,0.200667931 C16.5039499,-0.439454021 12.7242832,0.373253296 11.4836771,3.78181427 C10.3615559,6.86430208 12.4803438,13.3051313 12.0217377,15.0253265 C12.0217377,15.0253265 14.4241923,12.5051557 15.9143135,8.18061915 C16.3422529,6.93927769 16.9179499,11.3493996 16.9792832,11.9343509 C17.0468893,12.5787167 18.1717983,12.826985 18.3502226,12.1797899 C18.7502832,10.7220094 19.0060711,3.517985 24.8006771,6.18386305 C25.8684347,5.41713135 25.4056468,1.30620452 19.7699499,0.200667931" id="Fill-352" fill="#4577BB"></path>
                    <path d="M16.4654809,7.91477171 C15.8451779,7.63043025 14.8715112,7.68418634 14.6561476,9.21835708 C14.509087,10.2637717 15.2081476,11.5977717 15.8821173,11.6953815 C16.55539,11.7922839 16.600693,10.933601 16.7582082,9.88960098 C16.8634506,9.1985522 17.1736021,8.24013756 16.4654809,7.91477171" id="Fill-353" fill="#D6AC8E"></path>
                    <path d="M16.5941515,29 L11.1515152,32.8428537 L16.5042424,39.3140976 C17.8096667,40.9281951 20.0441515,40.7697561 21.4806061,39.627439 C22.9184545,38.485122 22.9330909,37.2006341 21.5628485,35.6615122 C20.3347879,34.2822439 16.5941515,29 16.5941515,29" id="Fill-354" fill="#D6AC8E"></path>
                    <path d="M45.2533725,51.3878969 C44.6170391,51.1452871 41.8877058,50.0821895 41.2945846,49.7447993 C40.7014634,49.4081164 37.4724028,47.772092 36.3084634,46.8617749 C35.1347664,45.94297 33.8195846,48.8337749 34.2273118,49.4286286 C34.6350391,50.0241895 37.3385846,53.6449456 39.3333118,53.2644091 C39.9334028,53.150531 40.7460694,51.6488969 41.6130997,51.4833847 C41.8263725,51.4430676 45.746827,52.5054578 45.8569482,52.0202383 C45.8904028,51.8738237 45.8750694,51.6248481 45.2533725,51.3878969" id="Fill-355" fill="#D6AC8E"></path>
                    <path d="M35.5598123,46.1537774 C32.2568729,44.0325335 25.4063578,39.0629237 22.4532972,36.5250701 C20.2606305,34.6407774 19.399176,35.369314 18.341176,36.4875823 C17.327085,37.5591676 15.9157214,38.8210213 17.3131457,40.1918018 C20.6899638,43.5034603 30.7981153,47.3845091 34.4767214,49.416631 C36.1849941,50.3594847 39.5262669,48.7015335 35.5598123,46.1537774" id="Fill-356" fill="#D6AC8E"></path>
                    <g id="Group-359" transform="translate(4.878788, 20.512195)">
                        <mask id="mask-29" fill="white">
                            <use xlink:href="#path-28"></use>
                        </mask>
                        <g id="Clip-358"></g>
                        <path d="M8.54554545,2.43882927 C6.93624242,0.405292683 4.00827273,0.0806341463 2.00378788,1.71382927 C-5.99520433e-15,3.34631707 -0.319909091,6.31917073 1.28939394,8.352 L6.16609091,14.5148537 C8.17963636,16.6226585 14.9716061,11.3241463 13.7156667,8.97302439 L8.54554545,2.43882927" id="Fill-357" fill="#F8CB5A" mask="url(#mask-29)"></path>
                    </g>
                </g>
                <path d="M148.300517,90.0467239 L113.116517,70.5197239 C109.935517,68.6837239 105.079517,68.4827239 102.326517,70.0727239 L27.8585171,113.231724 C25.1035171,114.821724 25.4525171,117.625724 28.6325171,119.461724 L63.8185171,138.987724 C66.9975171,140.823724 71.8535171,141.024724 74.6075171,139.434724 L149.076517,96.2757239 C151.829517,94.6857239 151.481517,91.8827239 148.300517,90.0467239" id="Fill-361" fill="#F2F2F5"></path>
                <g id="Group-364" transform="translate(25.000000, 93.000000)">
                    <mask id="mask-31" fill="white">
                        <use xlink:href="#path-30"></use>
                    </mask>
                    <g id="Clip-363"></g>
                    <path d="M123.683,2.785 L49.218,45.938 C46.46,47.529 41.608,47.328 38.427,45.496 L3.239,25.967 C1.507,24.971 0.611,23.672 0.611,22.444 L0.621,66.051 C0.561,67.31 1.446,68.658 3.249,69.695 L38.427,89.294 C41.608,91.126 46.46,91.327 49.218,89.737 L123.683,46.584 C124.911,45.879 125.515,44.933 125.545,43.937 L125.545,0.198 C125.495,1.165 124.88,2.091 123.683,2.785" id="Fill-362" fill="url(#linearGradient-2)" mask="url(#mask-31)"></path>
                </g>
                <path d="M149.062,123.598 L74.597,166.761 C71.839,168.352 66.987,168.151 63.806,166.308 L26,145.26 L26,147.077 L63.806,168.125 C66.987,169.957 71.839,170.159 74.597,168.568 L149.062,125.415 C150.31,124.7 150.914,123.733 150.924,122.727 L150.924,121 C150.884,121.977 150.27,122.904 149.062,123.598" id="Fill-366" fill="#FFFFFE"></path>
                <path d="M149.062,116.596 L74.597,159.76 C71.839,161.35 66.987,161.149 63.806,159.307 L26,138.258 L26,140.075 L63.806,161.124 C66.987,162.956 71.839,163.157 74.597,161.567 L149.062,118.413 C150.31,117.699 150.914,116.732 150.924,115.725 L150.924,114 C150.884,114.976 150.27,115.902 149.062,116.596" id="Fill-368" fill="#FFFFFE"></path>
                <g id="Group-374" transform="translate(71.000000, 98.000000)">
                    <mask id="mask-33" fill="white">
                        <use xlink:href="#path-32"></use>
                    </mask>
                    <g id="Clip-373"></g>
                    <polyline id="Fill-372" fill="url(#linearGradient-34)" mask="url(#mask-33)" points="0.962 8.18 23.283 21.294 44.467 9.086 13.55 0.974 0.962 8.18"></polyline>
                </g>
                <g id="Group-377" transform="translate(83.000000, 88.000000)">
                    <mask id="mask-36" fill="white">
                        <use xlink:href="#path-35"></use>
                    </mask>
                    <g id="Clip-376"></g>
                    <path d="M21.775,3.498 L21.775,0.936 L0.678,13.253 L0.678,15.825 C0.678,20.085 2.833,24.057 6.405,26.378 L11.279,29.519 L32.467,17.309 L27.549,14.136 C23.948,11.798 21.775,7.794 21.775,3.498" id="Fill-375" fill="url(#linearGradient-37)" mask="url(#mask-36)"></path>
                </g>
                <polyline id="Fill-378" fill="#F2F2F5" points="94 118.207 94.024 120.004 115.203 107.796 115.178 106 94 118.207"></polyline>
                <g id="Group-381" transform="translate(43.000000, 0.000000)">
                    <mask id="mask-39" fill="white">
                        <use xlink:href="#path-38"></use>
                    </mask>
                    <g id="Clip-380"></g>
                    <path d="M84.546,0.858 L3.677,47.042 C2.19,47.891 0.976,49.958 0.98,51.66 L1.105,117.965 C1.107,118.813 1.412,119.409 1.9,119.689 L4.591,121.235 C4.103,120.955 3.798,120.358 3.796,119.511 L3.671,53.207 C3.666,51.504 4.881,49.438 6.367,48.589 L87.236,2.404 C87.994,1.973 88.681,1.931 89.175,2.215 L86.485,0.669 C85.99,0.385 85.304,0.426 84.546,0.858" id="Fill-379" fill="url(#linearGradient-40)" mask="url(#mask-39)"></path>
                </g>
                <g id="Group-384" transform="translate(46.000000, 2.000000)">
                    <mask id="mask-42" fill="white">
                        <use xlink:href="#path-41"></use>
                    </mask>
                    <g id="Clip-383"></g>
                    <path d="M84.236,0.404 L3.368,46.589 C1.881,47.438 0.666,49.504 0.671,51.207 L0.796,117.511 C0.801,119.214 2.023,119.903 3.511,119.054 L84.379,72.87 C85.878,72.015 87.093,69.935 87.088,68.231 L86.963,1.927 C86.958,0.225 85.735,-0.451 84.236,0.404" id="Fill-382" fill="url(#linearGradient-43)" mask="url(#mask-42)"></path>
                </g>
                <path d="M123.697008,25.2510645 L68.8300082,56.5860645 C67.8210082,57.1620645 66.9970082,58.5640645 67.0000082,59.7200645 L67.0850082,104.705064 C67.0880082,105.860064 67.9180082,106.328064 68.9270082,105.752064 L123.795008,74.4180645 C124.812008,73.8370645 125.636008,72.4260645 125.633008,71.2710645 L125.547008,26.2840645 C125.544008,25.1290645 124.715008,24.6710645 123.697008,25.2510645" id="Fill-385" fill="#FFFFFF"></path>
            </g>
        </g>
    </g>
</svg>